<?xml version="1.0" encoding="utf-8"?>
<!DOCTYPE svg PUBLIC "-//W3C//DTD SVG 1.0//EN" "http://www.w3.org/TR/2001/REC-SVG-20010904/DTD/svg10.dtd">
<svg version="1.0" xmlns="http://www.w3.org/2000/svg" width="1912px" height="96px" viewBox="0 0 1912 96" preserveAspectRatio="xMidYMid meet">
 <g fill="#050507">
  <path d="M0 73.9 c0 -14.8 0.4 -22.7 1.2 -24.2 0.6 -1.2 1.5 -3.7 1.9 -5.5 0.6 -2.9 0.4 -3.5 -1.2 -3.9 -1.7 -0.5 -2 -1.3 -1.7 -5.7 0.3 -5 0.4 -5.1 3.8 -5.7 3.5 -0.6 2.9 -1.4 -1.5 -2.1 -1.9 -0.3 -2 -1.2 -2.3 -13.6 -0.2 -12.7 -0.2 -13.2 1.8 -13.2 1.1 0 2 0.4 2 0.9 0 0.6 1.2 0.6 3.2 0 2 -0.5 62.7 -0.9 150.5 -0.9 133.2 0 147.3 0.1 147.3 1.6 0 0.8 0.6 2.2 1.4 2.9 1.2 1.2 1.7 1 3.6 -1.5 2.3 -3 2.3 -3 18.3 -3 16 0 16 0 15.4 3.8 -0.3 2 -0.8 4.5 -1.2 5.5 -0.6 1.3 -0.2 1.7 1.9 1.7 1.4 0 2.6 0.5 2.6 1 0 0.6 0.4 1 1 1 1.9 0 5.2 -3.6 7.6 -8.2 2.4 -4.8 2.4 -4.8 14.9 -4.8 12.5 0 12.5 0 12.5 2.5 0 2.4 -0.3 2.5 -6.2 2.7 -5.6 0.1 -5.8 0.2 -1.6 0.5 4.7 0.4 4.7 0.4 5 9.1 0.3 8.6 0.3 8.6 5.4 -2.8 5.2 -11.5 5.2 -11.5 13.8 -11.8 8.2 -0.3 8.6 -0.2 8.6 1.9 0 1.1 -0.6 3.5 -1.4 5.2 -2.2 5 -2.4 7.2 -1 9.8 1.3 2.4 1.3 2.4 1.4 -0.3 0 -2.6 0.3 -2.8 4.5 -2.8 3.8 0 4.5 0.3 4.5 2 0 1.1 0.5 2 1 2 0.6 0 1 1.8 1 4 0 2.2 -0.4 4 -1 4 -0.5 0 -1 0.8 -1 1.8 0 1.5 1.3 1.7 13.5 1.7 7.4 0 13.5 -0.3 13.5 -0.7 0 -0.5 2.3 -0.8 5 -0.8 4.1 0 5 0.3 5 1.8 0 3 3.3 4.7 11.5 6 4.4 0.6 10 1.6 12.5 2.1 2.5 0.5 8.6 1.7 13.5 2.6 5 1 9.9 2.1 11 2.6 1.1 0.4 4 1 6.5 1.3 2.5 0.2 7 1 10 1.6 3 0.7 7.5 1.6 10 2.1 2.5 0.5 6.9 1.2 9.8 1.6 2.9 0.3 5.5 0.9 5.8 1.4 0.3 0.5 2.5 0.9 4.9 0.9 2.4 0 6.4 0.7 8.7 1.4 2.4 0.8 8.6 2 13.8 2.5 5.2 0.6 12 1.5 15 2 3 0.5 8.9 1.5 13 2.1 4.1 0.6 10.2 1.6 13.5 2.1 9.4 1.4 21.3 3 30 3.9 4.4 0.5 11.2 1.4 15 2 3.9 0.6 11.3 1.5 16.5 2.1 5.2 0.6 13.3 1.5 18 2 8.9 1 22.4 2.2 42.5 3.8 6.6 0.6 13.5 1.5 15.4 2 1.9 0.6 5.1 0.8 7.1 0.5 2 -0.3 7 0 11.1 0.7 4.1 0.7 10.1 1.2 13.3 1 3.3 -0.1 11.2 0.3 17.5 1 6.4 0.7 15.9 1.3 21.1 1.4 5.2 0.1 28.4 0.8 51.5 1.4 47.3 1.4 156.9 0.8 176.7 -1 6.8 -0.6 14.8 -0.8 17.8 -0.5 3 0.4 7.1 0.2 9 -0.4 3 -0.9 32.9 -3.1 48 -3.5 3 -0.1 7.5 -0.5 10 -0.9 2.5 -0.3 10.4 -1.1 17.5 -1.7 7.2 -0.5 16.6 -1.4 21 -2 4.4 -0.5 12.5 -1.4 18 -1.9 5.5 -0.5 13.8 -1.4 18.5 -2 14.4 -1.8 27.3 -3.2 32 -3.3 2.5 -0.1 4.8 -0.6 5.1 -1 0.3 -0.5 4.6 -1.2 9.5 -1.8 4.9 -0.5 11.8 -1.4 15.4 -1.9 3.6 -0.6 11 -1.5 16.5 -2 5.5 -0.6 11.4 -1.5 13.1 -2 1.8 -0.6 7.8 -1.7 13.5 -2.5 5.7 -0.8 13.8 -2.1 17.9 -2.9 4.1 -0.8 9.2 -1.5 11.3 -1.6 2.1 0 4.7 -0.5 5.8 -1.1 2.1 -1.1 4.1 -1.5 21.4 -4.4 5.5 -0.9 10.9 -2 12 -2.5 2.3 -1 7.1 -1.9 13.5 -2.6 2.5 -0.3 5.4 -0.9 6.5 -1.4 2 -0.9 4.2 -1.3 15 -3 10.2 -1.6 13.5 -3 13.5 -5.7 0 -2.1 0.4 -2.3 4.9 -2.3 2.7 0 5.1 0.4 5.3 0.9 0.2 0.5 4.9 0.6 10.6 0.3 10.2 -0.5 10.2 -0.5 10.2 -3.8 0 -8.7 3.9 -13 19.3 -21.2 7.9 -4.2 7.9 -4.2 88.8 -4.2 67.2 0 80.9 0.3 80.9 1.4 0 0.9 1.8 1.6 5 2 4.9 0.7 5 0.7 5 4.1 0 3.2 -0.2 3.4 -4.4 4 -4.5 0.7 -4.5 0.7 -5.2 8.6 -0.7 7.9 -0.7 7.9 -4 7.9 -2.7 0 -3.4 -0.4 -3.4 -2 0 -1.1 -0.7 -2 -1.5 -2 -0.9 0 -1.5 -0.9 -1.5 -2.5 0 -1.9 -0.5 -2.5 -2.2 -2.5 -2.2 0 -2.3 0.4 -2.3 8.3 0 4.5 -0.4 8.9 -0.8 9.8 -0.7 1.5 0.5 1.7 10 2.3 5.9 0.4 12.9 0.9 15.4 1.2 4.7 0.6 4.7 0.6 3.6 -4 -0.8 -3.8 -1.4 -4.6 -3.3 -4.6 -2.7 0 -3.4 -1.7 -3.4 -8.7 0 -3.5 0.5 -6 1.5 -6.9 0.8 -0.9 1.5 -2.4 1.5 -3.5 0 -1.1 0.7 -1.9 1.6 -1.9 0.9 0 1.8 -0.8 2.1 -1.9 0.4 -1.5 1.8 -1.9 9.6 -2.4 5.1 -0.3 11 -0.2 13.2 0.3 2.2 0.5 7.6 1 12 1 4.4 0.1 9.8 0.5 12 1 5.7 1.3 12.5 3 15.9 4.1 4 1.2 6.1 -0.8 8.3 -7.8 1.7 -5.3 1.7 -5.3 23.5 -5.3 21.8 0 21.8 0 21.8 2.9 0 1.5 -0.8 5 -1.9 7.7 -1 2.7 -3.1 9 -4.7 13.9 -1.5 5 -3.1 9.5 -3.4 10 -0.6 0.8 -3.5 9.7 -4.3 13 -0.2 0.8 41.7 5.3 51.3 5.4 3.4 0.1 3.6 -0.1 4.7 -4.8 2.4 -9.9 8.4 -16.1 15.5 -16.1 6 0.1 14.3 2.5 14.6 4.3 0.2 1 1.3 1.7 2.5 1.7 1.2 0 3.3 0.9 4.7 2 1.4 1.1 3.2 2 4 2 1.9 0.1 5.5 4.7 6.4 8.3 0.3 1.5 1.3 2.7 2.1 2.7 1 0 1.5 1 1.5 2.9 0 3.2 0 3.2 14.8 4.7 6.2 0.7 6.2 0.7 6.2 18 0 17.4 0 17.4 -947 17.4 -947 0 -947 0 -947 -22.1z m31 -17.2 c11.5 -1.2 11.5 -1.2 11.8 -6.5 0.3 -5.1 0.2 -5.4 -2.7 -6.5 -1.9 -0.7 -3.1 -1.9 -3.1 -2.9 0 -1.3 -0.8 -1.8 -2.8 -1.8 -1.6 0 -3.9 -0.9 -5.2 -2 -1.2 -1.1 -3.2 -2.2 -4.4 -2.5 -1.1 -0.4 -4.4 -1.6 -7.3 -2.7 -6.3 -2.4 -8.6 -2.1 -5.3 1 2.2 2 2.2 2.6 1.8 12.2 -0.3 5.6 -1 10.6 -1.7 11.3 -2 2 -1.1 2.7 3.2 2.1 2.3 -0.3 9.4 -1.1 15.7 -1.7z m294.6 -22.7 c3.1 0 4.4 -0.4 4.4 -1.4 0 -1 -1.5 -1.5 -5 -1.8 -4.4 -0.3 -5 0 -6 2.1 -0.9 2 -0.8 2.2 0.5 1.7 0.9 -0.3 3.7 -0.6 6.1 -0.6z m29.2 -1.7 c-2 -0.3 -2.8 -1 -2.8 -2.5 0 -2.1 0 -2.1 -2.2 0 -1.3 1.1 -3.9 2.2 -5.8 2.5 -1.9 0.2 0.3 0.4 5 0.4 4.7 0 7.3 -0.2 5.8 -0.4z m19.3 -1.5 c-2.3 -0.6 -3.7 -0.6 -4.4 0.1 -0.8 0.8 0.2 1.1 3.4 1 4.4 -0.1 4.4 -0.1 1 -1.1z m1205.7 -9.8 c2 -1.6 4.4 -3 5.2 -3 2.7 0 3.9 -2 3.3 -5.9 -0.3 -2 -0.7 -3.7 -0.8 -3.9 -0.7 -0.8 -23.4 6.1 -23.8 7.2 -0.2 0.6 -0.2 3.2 0.1 5.7 0.4 4.5 0.4 4.5 6.4 3.7 4.4 -0.6 6.9 -1.6 9.6 -3.8z"/>
  <path d="M488 23.5 c0 -1.9 0.4 -3.5 0.9 -3.5 0.5 0 0.6 -2 0.3 -4.5 -0.3 -3 -0.1 -4.5 0.7 -4.5 0.6 0 1.1 -0.4 1.1 -1 0 -1.3 3.7 -5 5 -5 0.6 0 1 -1.1 1 -2.5 0 -2.5 0 -2.5 13.3 -2.5 14.6 0 15.7 0.4 15.7 5.6 0 2.7 -0.5 3.2 -3.2 4 -2.7 0.8 -3.4 1.5 -3.6 3.9 -0.3 3 -0.3 3 2 -0.2 1.6 -2.3 3.1 -3.3 5.1 -3.3 1.9 0 2.7 -0.5 2.7 -1.7 0.1 -2 6.3 -5.3 10.1 -5.3 3.7 0 7.8 2.2 8.1 4.5 0.2 1.6 0.9 1.9 3.8 1.7 1.9 -0.2 6.9 -0.4 11 -0.5 7.5 -0.2 7.5 -0.2 7.8 3.4 0.3 3.2 0.7 3.8 3.3 4.3 2.5 0.5 2.9 1 2.9 3.9 0 3.4 0 3.4 -7.7 4.1 -14.3 1.2 -18.1 0.9 -19.4 -1.6 -1.2 -2.2 -1.2 -2.2 -2 -0.2 -0.6 1.7 -1.9 2.2 -7.6 2.7 -3.7 0.4 -10 0.7 -14 0.7 -7.1 0 -7.2 0 -7.5 -2.7 -0.4 -2.8 -0.4 -2.8 -1.5 -0.2 -1 2.3 -2 2.7 -6.5 3.3 -2.9 0.3 -9 0.6 -13.5 0.5 -8.3 0 -8.3 0 -8.3 -3.4z"/>
  <path d="M1348 22.5 c0 -2.8 0.4 -3.5 2 -3.5 1.6 0 2 -0.7 2 -3.7 0 -3.8 0 -3.8 -2 -1.3 -1.1 1.4 -2.5 3.7 -3.1 5.3 -0.9 2.2 -1.8 2.7 -4.6 2.7 -3.5 0 -3.5 0 -3 -3.7 0.3 -2.1 0.9 -6.2 1.3 -9 0.4 -3.2 1.1 -5.3 1.9 -5.3 0.7 0 1.5 -0.9 1.8 -2 0.4 -1.6 1.4 -2 5.2 -2 5.2 0 5.1 -0.5 2.9 8.5 -0.7 2.7 -0.6 2.9 0.9 1.6 1 -0.7 1.7 -2.8 1.7 -4.5 0 -4.1 1.6 -5.6 5.8 -5.6 3.5 0 3.5 0 2.8 5.6 -0.9 7.4 -2.8 13.4 -4.3 13.4 -0.8 0 -1.3 1.4 -1.3 3.5 0 3.5 0 3.5 -5 3.5 -5 0 -5 0 -5 -3.5z"/>
  <path d="M1387.8 25.3 c-2 -0.5 -2.4 -4.8 -0.8 -9.7 0.5 -1.7 1.2 -4.8 1.5 -6.9 0.6 -3.4 0.8 -3.7 4 -3.7 3.4 0 3.4 0 3.4 10.5 0 10.5 0 10.5 -3.2 10.4 -1.8 -0.1 -4 -0.3 -4.9 -0.6z"/>
  <path d="M1326 21.9 c0 -1.8 1 -5.8 2.3 -9 2.1 -5.7 2.3 -5.9 6 -5.9 3.7 0 3.7 0 3.7 4.5 0 2.5 -0.9 6.5 -2.1 9 -2 4.2 -2.4 4.5 -6 4.5 -3.7 0 -3.9 -0.2 -3.9 -3.1z"/>
  <path d="M1398 20.5 c0 -4.5 0 -4.5 3.5 -4.5 3.5 0 3.5 0 3.5 4.5 0 4.5 0 4.5 -3.5 4.5 -3.5 0 -3.5 0 -3.5 -4.5z"/>
  <path d="M1372.9 20.8 c0 -3.1 -0.1 -3.2 -1.1 -1 -0.8 1.6 -2 2.2 -4.6 2.2 -3.5 0 -3.5 0 -2.8 -7.9 0.3 -4.3 1.1 -9.3 1.7 -11 1.1 -3 1.3 -3.1 7 -3.1 4.6 0 5.9 0.3 5.9 1.5 0 1.1 1.1 1.5 3.6 1.5 3.7 0 3.7 0 3 6.7 -0.4 3.6 -1.2 8.3 -1.9 10.5 -1.2 3.7 -1.3 3.8 -5.9 3.8 -4.7 0 -4.8 0 -4.9 -3.2z m3.1 -8.6 c0 -2.5 -0.1 -2.5 -1.5 -0.6 -0.8 1 -1.5 2.7 -1.5 3.8 0 1.5 0.3 1.6 1.5 0.6 0.8 -0.7 1.5 -2.4 1.5 -3.8z"/>
  <path d="M617 21 c-0.8 -1.1 -2.3 -2 -3.3 -2 -1 0 -2.1 -0.9 -2.4 -2 -0.3 -1.1 -1.2 -2 -1.9 -2 -0.9 0 -1.4 -1.2 -1.4 -3.5 0 -1.9 0.5 -3.5 1 -3.5 0.6 0 1 -0.7 1 -1.5 0 -0.8 0.5 -1.5 1 -1.5 0.6 0 1 -0.9 1 -1.9 0 -2.7 1.8 -3.1 15.6 -3.1 12.4 0 12.4 0 12.4 3.3 0 4.2 -2.4 10.8 -4.4 12.2 -0.9 0.7 -1.6 2.6 -1.6 4.4 0 3.1 0 3.1 -7.8 3.1 -6.6 0 -8 -0.3 -9.2 -2z"/>
  <path d="M680 17.6 c0 -3.2 0.3 -3.6 2.5 -3.6 1.4 0 2.5 -0.4 2.5 -1 0 -0.5 2.4 -1 5.4 -1 8.8 0 15.4 -1.9 16 -4.6 0.5 -1.9 1.5 -2.5 5.6 -3 4 -0.5 5 -1 5 -2.5 0 -1.9 3.2 -1.9 118.5 -1.9 118.5 0 118.5 0 118.5 3 0 1.7 -0.5 3 -1 3 -0.7 0 -0.8 2.2 -0.4 6.3 0.6 6.4 0.6 6.4 -106.2 7 -58.8 0.4 -120.3 1 -136.6 1.3 -29.8 0.7 -29.8 0.7 -29.8 -3z m56.4 -7.5 c0.3 -0.5 -0.5 -1.1 -1.9 -1.3 -2 -0.4 -2.3 -0.3 -1.4 0.8 1.3 1.6 2.5 1.8 3.3 0.5z"/>
  <path d="M1174 18.3 c0 -5.5 1 -7.2 4.3 -7.5 2.3 -0.2 3.5 -1.1 4.5 -3 0.7 -1.6 2 -2.8 2.8 -2.8 0.8 0 2 -1.1 2.6 -2.5 1.1 -2.4 1.4 -2.5 11.5 -2.5 12.2 0 12 -0.5 7.1 12.5 -3.2 8.5 -3.2 8.5 -18 8.5 -14.8 0 -14.8 0 -14.8 -2.7z"/>
  <path d="M670 16.5 c0 -3.3 0.2 -3.5 3.5 -3.5 3.3 0 3.5 0.2 3.5 3.5 0 3.3 -0.2 3.5 -3.5 3.5 -3.3 0 -3.5 -0.2 -3.5 -3.5z"/>
  <path d="M1093.7 19.3 c-0.4 -0.3 -0.7 -2.3 -0.7 -4.4 0 -3.8 0 -3.8 -4.7 -3.3 -5.3 0.6 -10.3 -0.8 -10.3 -3 0 -2.2 -2.7 -2.7 -3.3 -0.5 -0.4 1.4 -1.4 1.9 -3.9 1.9 -2.7 0.1 -3 0.2 -1.5 1.1 1.1 0.6 1.7 2.2 1.7 4.4 0 3.5 0 3.5 -5.6 3.5 -5.5 0 -5.5 0 -5.2 -4.2 0.2 -3.4 0.7 -4.4 2.3 -4.6 1.7 -0.2 2 -0.9 1.7 -5.2 -0.4 -5 -0.4 -5 11.7 -5 10.1 0 12.1 0.2 12.1 1.5 0 0.9 0.9 1.5 2.5 1.5 1.6 0 2.5 -0.6 2.5 -1.5 0 -1 1.1 -1.5 3.5 -1.5 2.4 0 3.5 0.5 3.5 1.5 0 1.9 1.6 1.9 2.4 0 0.3 -1 1.9 -1.5 4.6 -1.5 4 0 4 0 4 4 0 3.6 0.3 4 2.5 4 1.8 0 2.5 -0.5 2.5 -2 0 -1.1 -0.4 -2 -1 -2 -0.5 0 -1 -0.9 -1 -2 0 -1.8 0.7 -2 6 -2 5.7 0 6 0.1 6 2.5 0 2.2 0.4 2.5 3.5 2.5 3.3 0 3.5 0.2 3.5 3.3 0 3.2 0.1 3.2 4 2.9 4 -0.4 4 -0.4 4 4.2 0 4.6 0 4.6 -11.2 4.6 -8.4 -0.1 -11.8 -0.4 -13.2 -1.5 -2.6 -1.9 -9.3 -1.9 -11.2 0 -1.6 1.5 -10.4 2.1 -11.7 0.8z"/>
  <path d="M1153 16.8 c0 -1.7 0.9 -5 1.9 -7.2 1 -2.3 2.2 -5.3 2.5 -6.8 0.6 -2.6 1 -2.8 6.1 -2.8 5.5 0 5.5 0 5.5 3.1 0 2 -0.8 3.7 -2.2 4.8 -2.1 1.8 -2.1 1.8 0.5 2.5 2.2 0.5 2.7 1.2 2.7 3.8 0 4.4 -2.3 5.7 -10.2 5.8 -6.8 0 -6.8 0 -6.8 -3.2z"/>
  <path d="M957 13.5 c0 -4.2 0.5 -6 2 -7.5 1.1 -1.1 2 -2.9 2 -4 0 -1.6 0.7 -2 3.5 -2 3.5 0 3.5 0 3.5 5 0 2.8 0.5 5 1 5 0.6 0 1 1.7 1 3.9 0 3.5 -0.3 3.9 -3.1 4.5 -1.7 0.3 -4.7 0.6 -6.5 0.6 -3.4 0 -3.4 0 -3.4 -5.5z"/>
  <path d="M971.6 17.4 c-1.8 -4.7 0.2 -11.4 3.4 -11.4 0.6 0 1.6 -1.3 2.1 -3 1.1 -3 1.1 -3 17.4 -3 16.3 0 16.3 0 17 7.5 1.1 11.6 1.4 11.5 -21 11.5 -15.8 0 -18.4 -0.2 -18.9 -1.6z"/>
  <path d="M1025.2 15.3 c0.3 -3.7 0.4 -3.8 4.6 -4.1 4.2 -0.3 4.2 -0.3 4.2 3.7 0 4.1 0 4.1 -4.6 4.1 -4.5 0 -4.5 0 -4.2 -3.7z"/>
  <path d="M660 14.5 c0 -3.3 0.2 -3.5 3.5 -3.5 3.3 0 3.5 0.2 3.5 3.5 0 3.3 -0.2 3.5 -3.5 3.5 -3.3 0 -3.5 -0.2 -3.5 -3.5z"/>
  <path d="M1304 14.1 c0 -5.2 0.8 -7.1 3.1 -7.1 1.5 0 1.9 -0.7 1.9 -3.5 0 -3.5 0 -3.5 4.5 -3.5 4.5 0 4.5 0 4.5 3.5 0 3.3 -0.2 3.5 -3.2 3.6 -1.8 0.1 -2.5 0.3 -1.5 0.6 1.5 0.4 1.7 1.3 1.5 5.1 -0.3 4.7 -0.3 4.7 -5.5 5 -5.3 0.3 -5.3 0.3 -5.3 -3.7z"/>
  <path d="M1318.3 12.3 c0.4 -3.2 1.1 -7.3 1.8 -9 1 -3.1 1.4 -3.3 5.5 -3.3 5.4 0 5.5 0.9 1.8 10.9 -2.6 7 -2.7 7.1 -6.2 7.1 -3.5 0 -3.5 0 -2.9 -5.7z"/>
  <path d="M1039 13 c0 -2.2 0.4 -4.8 0.9 -5.8 0.6 -0.9 1.2 -2.9 1.6 -4.4 0.5 -2.6 0.9 -2.8 5.5 -2.8 5 0 5 0 5 5 0 8.6 -2.8 11.9 -10.2 12 -2.6 0 -2.8 -0.3 -2.8 -4z"/>
  <path d="M1293 10.9 c0 -1.8 0.5 -4.9 1.2 -7 1.1 -3.9 1.1 -3.9 6.5 -3.9 6.1 0 6.5 0.8 3.3 6.8 -3.2 6 -4.5 7.2 -7.9 7.2 -2.8 0 -3.1 -0.3 -3.1 -3.1z"/>
  <path d="M1281 9.1 c0 -1.5 0.5 -4.2 1.1 -6 1 -2.8 1.5 -3.1 5 -3.1 4.4 0 4.8 1.2 2.7 8.1 -1 3.7 -1.4 3.9 -5 3.9 -3.5 0 -3.8 -0.2 -3.8 -2.9z"/>
  <path d="M1271 4.5 c0 -4.5 0 -4.5 4 -4.5 3.5 0 4 0.3 4 2.3 0 5.2 -1.1 6.7 -4.6 6.7 -3.4 0 -3.4 -0.1 -3.4 -4.5z"/>
  <path d="M1260 2.6 c0 -2.4 0.4 -2.6 4.1 -2.6 3.6 0 4 0.2 3.7 2.3 -0.2 1.8 -1 2.3 -4 2.5 -3.5 0.3 -3.8 0.1 -3.8 -2.2z"/>
 </g>
 <g fill="#160f0d">
  <path d="M1891 65.5 c0 -0.8 -0.5 -1.5 -1.1 -1.5 -0.6 0 -15.6 -1.6 -33.3 -3.5 -31.3 -3.3 -89.6 -8.8 -106.6 -10 -13.5 -0.9 -15 -1.3 -15 -3.7 0 -1.9 0.4 -2 5.8 -1.5 18.4 2 21.2 2 21.2 0.3 0 -2 -2.3 -2.1 28 0.9 34.7 3.4 35 3.4 34.3 5 -0.6 1.6 1.2 2.1 11.2 3 3.9 0.3 8.9 0.9 11.1 1.2 3.7 0.5 4.3 0.3 4.9 -1.6 1 -3.3 8.5 -2.1 8.5 1.3 0 0.8 1 1.6 2.3 2 3.5 0.9 7.7 0.7 7.7 -0.4 0 -0.5 -0.7 -1 -1.7 -1 -0.9 0 -1.4 -0.3 -1 -0.6 0.3 -0.3 6 -0.1 12.6 0.6 12.1 1.3 12.1 1.3 12.1 6.1 0 2.7 -0.2 4.9 -0.5 4.9 -0.3 0 -0.5 -0.7 -0.5 -1.5z"/>
  <path d="M0 49.9 c0 -13 0 -13 3.3 -12.7 3.2 0.3 3.2 0.3 3 6 -0.1 3.8 -1 7.3 -2.8 10.7 -2.5 5.1 -2.5 5.1 0.3 5.1 2.3 0 3.1 -0.7 4.6 -4.1 1 -2.3 2.1 -7 2.4 -10.5 0.4 -6 0.3 -6.5 -2.5 -9.4 -3 -3.1 -6.3 -3.3 -6.3 -0.4 0 0.8 -0.4 1.4 -1 1.4 -0.6 0 -1 -3.2 -0.9 -7.7 0 -4.3 0.3 -7.2 0.6 -6.5 0.2 0.6 2.3 1.5 4.5 1.8 2.2 0.4 4.2 1.2 4.5 1.9 0.2 0.7 1.2 1.1 2.1 0.8 1 -0.2 4.2 0.7 7.2 2 3 1.3 7.4 2.9 9.7 3.7 2.3 0.7 4 1.7 3.7 2.1 -0.5 0.8 1 1.3 3 1 2.1 -0.4 4.6 1.2 4.6 3 0 1 0.7 1.9 1.5 1.9 0.9 0 2.8 1.2 4.2 2.6 2.1 2.1 2.3 2.8 1.2 3.5 -1.1 0.7 -1.1 0.9 0.3 0.9 1.3 0 1.7 0.7 1.6 2.5 -0.1 1.4 -0.9 2.5 -1.7 2.5 -1.1 0 -1.2 0.3 -0.4 1.1 0.7 0.7 6.1 0.6 18.4 -0.6 45 -4.2 70.9 -6.6 76.7 -7.1 5.8 -0.6 6.2 -0.5 6.2 1.4 0 2.4 -1.5 2.8 -15 3.7 -15.8 1.1 -74.3 6.6 -102 9.5 -15.1 1.7 -28.3 3 -29.2 3 -1.6 0 -1.8 -1.3 -1.8 -13.1z"/>
  <path d="M149.4 47.6 c-0.9 -2.5 0.1 -3 6.4 -3.4 12.2 -0.9 26.7 -1.9 36.7 -2.8 3.3 -0.2 8.7 -0.6 12 -0.8 7.1 -0.4 10.5 -1.3 10.5 -2.8 0 -0.7 -0.5 -0.6 -1.5 0.2 -1.5 1.2 -3.5 0.6 -3.5 -1.1 0 -0.5 2 -0.9 4.4 -0.9 3.6 0 4.4 0.3 4.2 1.8 -0.1 1.1 0.7 1.8 2.5 2 1.9 0.2 2.8 -0.3 3.7 -2.3 1.2 -2.5 4.6 -3.7 3.6 -1.1 -0.7 1.7 9.4 3 13.1 1.6 4.2 -1.6 7.5 -1.3 7.5 0.8 0 1.4 -1.3 2.1 -5.7 3 -3.2 0.6 -7.8 1.2 -10.3 1.1 -2.5 0 -7.9 0.3 -12 0.6 -4.1 0.3 -10.6 0.7 -14.5 1 -3.8 0.3 -9.9 0.7 -13.5 1 -3.6 0.3 -9.4 0.8 -13 1.1 -3.6 0.2 -9.4 0.7 -13 0.9 -3.6 0.3 -8.9 0.8 -11.7 1.1 -4.4 0.5 -5.4 0.4 -5.9 -1z"/>
  <path d="M1724.7 48.4 c-0.3 -0.3 -3.8 -0.8 -7.9 -1 -6.8 -0.3 -9.8 -0.5 -26.8 -1.9 -16.5 -1.3 -20.8 -1.6 -25 -1.5 -2.5 0 -6.9 -0.5 -9.7 -1.2 -5.1 -1.1 -5.3 -1.2 -5.3 -4.5 0 -3.3 0.1 -3.3 4.5 -3.3 4.1 0 4.5 0.2 4.5 2.5 0 1.8 0.5 2.5 2 2.5 1.3 0 2 -0.7 2 -2 0 -2.4 3.2 -2.7 5 -0.5 0.7 0.8 2.1 1.5 3 1.5 1 0 2 0.6 2.3 1.3 0.3 0.9 0.9 0.9 2.3 0.1 1.1 -0.6 2.8 -0.9 3.9 -0.7 1.1 0.2 3 0.5 4.2 0.6 1.3 0.1 2.3 0.5 2.3 1 0 0.4 0.7 0.7 1.5 0.7 0.8 0 1.5 -0.4 1.5 -1 0 -0.5 2.4 -1 5.3 -0.9 3.8 0 4.7 0.3 3.2 0.9 -2 0.9 -2 0.9 0 1.1 1.1 0.1 3.8 0.1 6 0 2.2 -0.1 5.1 0.2 6.5 0.6 2.8 1 6 0.6 6 -0.7 0 -0.5 -0.8 -1.1 -1.7 -1.3 -1 -0.3 0.8 -0.5 3.9 -0.6 5.1 -0.1 5.6 0.1 5.3 1.8 -0.3 1.6 0.4 1.9 4.6 2.3 5.6 0.6 6.4 1.1 5.6 3.3 -0.6 1.5 -7.6 2.2 -9 0.9z"/>
  <path d="M1856.3 43.3 c-3.3 -2.2 -2.8 -3.3 1.2 -3.3 3.1 0 3.5 0.3 3.5 2.5 0 2.8 -1.5 3.1 -4.7 0.8z"/>
  <path d="M1638.8 41.7 c-3.4 -0.9 -3.8 -1.4 -3.8 -4.4 0 -3.3 0 -3.3 5 -3.3 4.7 0 5 0.2 5 2.5 0 1.8 0.5 2.5 2 2.5 1.3 0 2 0.7 2 2 0 1.6 -0.6 2 -3.2 1.9 -1.8 -0.1 -5 -0.6 -7 -1.2z"/>
  <path d="M250 40.2 c0 -1.3 1.3 -2.1 4.5 -3 6.4 -1.7 8.5 -1.5 8.5 0.6 0 1.3 -1.3 2.1 -4.5 3 -6.4 1.7 -8.5 1.5 -8.5 -0.6z"/>
  <path d="M1623.8 40.7 c-2.6 -0.7 -3.8 -1.6 -3.8 -2.9 0 -2.1 2.1 -2.3 8.5 -0.6 3.2 0.9 4.5 1.7 4.5 3 0 2.1 -3.1 2.2 -9.2 0.5z"/>
  <path d="M266 39 c0 -1.1 0.5 -2 1 -2 0.6 0 1 -1.1 1 -2.5 0 -1.9 0.5 -2.5 2.1 -2.5 1.5 0 1.9 0.5 1.5 1.5 -0.4 1.2 0.3 1.5 2.9 1.5 2.7 0 3.5 0.4 3.5 1.8 0 1.3 -1.2 2.2 -3.9 3 -5.8 1.8 -8.1 1.5 -8.1 -0.8z"/>
  <path d="M1608.3 39.8 c-3.9 -1.3 -4.7 -4.8 -1.2 -4.8 4.5 0 9.9 2.3 9.9 4.2 0 2.1 -3.3 2.3 -8.7 0.6z"/>
  <path d="M1703.8 40.3 c1.8 -0.2 4.5 -0.2 6 0 1.5 0.2 0 0.4 -3.3 0.4 -3.3 0 -4.5 -0.2 -2.7 -0.4z"/>
  <path d="M282 38 c0 -1.4 1.1 -2.3 4.1 -3.1 3.1 -1 4.5 -2.1 6 -5.1 2.4 -4.7 5.9 -5.3 5.9 -1 0 3.2 -1.6 5.2 -4.2 5.2 -1.1 0 -1.8 0.7 -1.8 2 0 2.2 -3.4 4 -7.6 4 -1.7 0 -2.4 -0.5 -2.4 -2z"/>
  <path d="M1592.8 38.8 c-3.6 -1.3 -3.9 -4.8 -0.4 -4.8 4.2 0 8.6 2.1 8.6 4.1 0 2.2 -3.5 2.5 -8.2 0.7z"/>
  <path d="M299 36 c0 -2.3 0.5 -3 1.9 -3 1 0 2.4 -0.7 3.1 -1.5 2.3 -2.8 4 -1.8 4 2.4 0 4.1 -1.3 5.1 -6.7 5.1 -1.9 0 -2.3 -0.6 -2.3 -3z"/>
  <path d="M1576.3 38 c-3.2 -1.3 -3.1 -5 0.1 -5 4.2 0 7.6 1.8 7.6 4 0 1.5 -0.6 2 -2.7 1.9 -1.6 0 -3.8 -0.4 -5 -0.9z"/>
  <path d="M1680 38.2 c0 -0.4 1.4 -0.8 3 -0.8 1.7 -0.1 3 0.2 3 0.7 0 0.5 -1.3 0.9 -3 0.9 -1.6 0 -3 -0.3 -3 -0.8z"/>
  <path d="M1691.3 38.3 c1.5 -0.2 3.9 -0.2 5.5 0 1.5 0.2 0.2 0.4 -2.8 0.4 -3 0 -4.3 -0.2 -2.7 -0.4z"/>
  <path d="M316.6 36.5 c-0.3 -0.9 -0.6 -3 -0.6 -4.6 0 -2.8 0.2 -2.9 4.4 -2.9 4.2 0 4.4 0.1 4.9 3.7 0.4 2 0.5 3.9 0.3 4.1 -0.3 0.2 -2.2 0.6 -4.4 0.9 -3.1 0.4 -4 0.2 -4.6 -1.2z"/>
  <path d="M1558.8 37.3 c-1.1 -0.3 -1.8 -1.4 -1.8 -2.9 0 -1.9 0.5 -2.4 2.6 -2.4 1.9 0 2.5 -0.4 2 -1.5 -0.3 -0.9 0 -1.5 0.9 -1.5 0.8 0 1.5 0.9 1.5 2 0 1.1 0.7 2 1.5 2 1.6 0 1.9 0.9 0.9 3.4 -0.6 1.5 -3.8 1.9 -7.6 0.9z"/>
  <path d="M334.6 35.4 c-1 -2.5 -0.7 -3.4 1 -3.4 0.9 0 1.8 -0.9 2.1 -2 0.8 -2.9 3.3 -2.5 3.3 0.5 0 1.6 0.6 2.5 1.5 2.5 2.4 0 1.8 2.7 -0.7 3.4 -3.9 1 -6.6 0.7 -7.2 -1z"/>
  <path d="M1540.8 36.3 c-2 -0.5 -2.3 -2 -0.9 -4.2 0.6 -1 2 -1.2 4.6 -0.8 4.6 0.7 4.9 1 4 3.6 -0.6 2.1 -3.3 2.6 -7.7 1.4z"/>
  <path d="M355 35.1 c0 -0.6 -0.9 -1.1 -2 -1.1 -1.6 0 -2 -0.7 -2 -3.5 0 -2.8 0.4 -3.5 2 -3.5 1.1 0 2 0.5 2 1.2 0 0.9 0.3 0.9 1.2 0 2.1 -2.1 3.8 -1.4 3.8 1.6 0 1.5 0.4 2.3 0.8 1.7 1.4 -1.9 9.7 -5.7 11.7 -5.3 1.6 0.2 2.1 -0.3 2.4 -2.7 0.3 -2.6 0.4 -2.8 1.1 -1 0.6 1.3 0.9 -0.7 0.9 -5.7 0.1 -7.8 0.1 -7.8 -4.2 -7.8 -6.8 0 -8.9 -2.2 -7.8 -8.2 0.2 -1.2 5.9 -1 6.6 0.2 0.3 0.6 2.4 1 4.6 1 2.1 0 3.9 -0.4 3.9 -1 0 -0.6 3.2 -1 7.5 -1 4.1 0 7.5 0.2 7.5 0.5 0 0.2 -2.9 6.8 -6.4 14.5 -5.6 12.2 -6.2 14 -4.5 14 2.5 0 2.4 1.1 -0.2 3.4 -2.5 2.1 -8.9 3.4 -8.9 1.7 0 -1.4 -11.7 -1.5 -12.2 -0.1 -0.5 1.5 -7.8 2.5 -7.8 1.1z"/>
  <path d="M1521.8 35.3 c-2.2 -0.5 -2.3 -2 -0.4 -3.9 1.6 -1.5 3.7 -1.7 7.4 -0.8 2.5 0.7 3.1 3.4 0.7 3.4 -0.8 0 -1.5 0.5 -1.5 1 0 1 -3 1.2 -6.2 0.3z"/>
  <path d="M1501.8 34.3 c-2.4 -0.6 -2.3 -3.3 0.1 -3.3 1.1 0 2.1 -0.3 2.3 -0.7 0.7 -1.8 6.6 -4.1 7.6 -3.1 1.2 1.2 4.6 0.2 3.8 -1.1 -0.5 -0.7 1.5 -2.1 3 -2.1 1.1 0 0.2 2.2 -1.6 4 -2 2 -2 2 1.3 2 3 0.1 3.1 0.1 1.3 1.5 -1.1 0.9 -4.1 1.5 -6.8 1.5 -2.6 0 -4.8 0.5 -4.8 1 0 1 -3 1.2 -6.2 0.3z"/>
  <path d="M165.4 31.8 c0.1 -1.3 0.8 -2.4 1.9 -2.6 2.2 -0.4 2.2 1.1 -0.2 3.2 -1.7 1.6 -1.8 1.5 -1.7 -0.6z"/>
  <path d="M395 33 c0 -0.5 -1.1 -1 -2.5 -1 -3.9 0 -3.1 -2.8 1 -3.6 2 -0.4 3.2 -1 2.8 -1.7 -0.3 -0.6 -0.1 -0.7 0.5 -0.3 0.7 0.4 1.2 1.4 1.2 2.2 0 0.9 1.1 1.4 3 1.4 3.6 0 4.1 2.5 0.8 3.4 -3.5 0.9 -6.8 0.7 -6.8 -0.4z"/>
  <path d="M1480.8 33.3 c-2.8 -0.7 -2.2 -3.3 0.7 -3.3 1.4 0 2.5 -0.4 2.5 -1 0 -1.1 3.3 -1.3 6.8 -0.4 3 0.9 2.8 3.4 -0.3 3.4 -1.4 0 -2.5 0.5 -2.5 1 0 1 -4 1.2 -7.2 0.3z"/>
  <path d="M418 32 c0 -0.5 -1.8 -1 -4 -1 -3.4 0 -4 -0.3 -4 -2.1 0 -1.6 0.4 -2 1.8 -1.5 1.6 0.6 1.6 0.5 0 -0.8 -2.7 -2.1 -2.2 -2.6 2.7 -2.6 4.1 0 4.5 0.2 4.5 2.5 0 2.1 0.5 2.5 3 2.5 3.6 0 4.1 2.5 0.8 3.4 -3.3 0.8 -4.8 0.7 -4.8 -0.4z"/>
  <path d="M1459.8 32.3 c-1.9 -0.5 -2.5 -3.3 -0.8 -3.3 0.6 0 1 -1.3 1 -3 0 -2.5 0.4 -3 2.4 -3 1.6 0 2.3 0.5 2.2 1.7 -0.1 1.2 1.1 1.9 4.2 2.6 5.6 1.1 5.8 3.7 0.2 3.7 -2.2 0 -4 0.5 -4 1 0 1 -2.1 1.1 -5.2 0.3z"/>
  <path d="M431.2 26.4 c0.2 -3.2 0.7 -4 2.6 -4.2 1.2 -0.2 2.2 -1 2.2 -1.8 0 -1.5 2.8 -1.8 7.9 -0.8 2.7 0.6 3.1 1.1 3.1 3.9 0 4.4 -1.6 5.4 -9.5 6.2 -6.6 0.6 -6.6 0.6 -6.3 -3.3z"/>
  <path d="M1443 26.5 c0 -3.5 0 -3.5 4.5 -3.5 4.5 0 4.5 0 4.5 3.5 0 3.5 0 3.5 -4.5 3.5 -4.5 0 -4.5 0 -4.5 -3.5z"/>
  <path d="M1633 26.8 c0 -1.8 -0.7 -4.1 -1.4 -5.1 -1.3 -1.6 -1.8 -1.6 -7.6 -0.3 -7.2 1.7 -9.6 1 -10.6 -2.9 -0.3 -1.4 -2 -3.5 -3.6 -4.6 -1.7 -1.2 -2.7 -2.7 -2.4 -3.5 0.3 -0.8 0.1 -1.4 -0.4 -1.4 -0.6 0 -1 -1.4 -1 -3 0 -2.9 0.2 -3 3.5 -2.8 3.7 0.2 6.1 2 5.1 3.6 -0.3 0.6 0.1 1.5 0.9 2.2 0.8 0.7 1.5 1.8 1.5 2.5 0 1.6 3 4.1 5.8 4.8 1.3 0.3 4.3 -0.3 6.9 -1.5 4.4 -1.9 4.7 -1.9 5.9 -0.3 0.9 1.2 1.7 1.4 3.1 0.7 1 -0.6 2.3 -1.1 2.8 -1.2 0.6 -0.1 0.9 -0.8 0.7 -1.6 -0.2 -1 0.6 -1.4 2.8 -1.4 3.3 0 3.6 -0.6 1.5 -3.4 -0.8 -1.1 -1.5 -3.2 -1.5 -4.8 0 -2.8 0 -2.8 46.4 -2.8 46.4 0 46.4 0 46.9 2.7 0.6 3.1 -2.2 11.4 -4.1 12.1 -0.8 0.2 -1.2 -0.8 -1.2 -3.2 0 -2.5 -0.4 -3.6 -1.5 -3.6 -0.8 0 -1.5 0.7 -1.5 1.5 0 0.8 0.5 1.5 1 1.5 0.6 0 1 1.6 1 3.6 0 3.3 -0.2 3.5 -2.9 3.1 -1.7 -0.3 -3.4 -0.8 -4 -1.1 -0.5 -0.3 -1.2 0 -1.4 0.6 -0.3 0.7 -0.6 0.1 -0.6 -1.3 -0.1 -2.9 -3.1 -5 -3.1 -2.2 0 1.2 -0.7 1.4 -3 0.9 -1.9 -0.3 -2.9 -0.2 -2.5 0.4 0.4 0.6 -0.9 1 -3.2 1 -2.6 0 -3.4 -0.3 -2.4 -0.9 1.2 -0.8 1.2 -1 0 -1.4 -0.8 -0.2 0 -0.3 1.6 -0.1 2.5 0.3 2.7 0.2 1.2 -0.7 -1 -0.6 -5.7 -1.1 -10.5 -1.2 -4.8 -0.1 -8.9 -0.5 -9.2 -0.9 -0.3 -0.4 -3.3 -0.8 -6.8 -0.9 -3.4 -0.1 -6.2 -0.6 -6.2 -1.1 0 -0.4 -0.9 -0.8 -2 -0.8 -1.1 0 -2 -0.4 -2 -1 0 -1.7 -8 -1.2 -8.6 0.5 -0.4 0.8 -1.2 1.5 -2 1.5 -0.8 0 -1.4 0.4 -1.4 0.9 0 0.4 -3.1 1.2 -7 1.5 -6.9 0.7 -7 0.8 -7 3.7 0 1.6 -0.4 2.9 -1 2.9 -0.5 0 -0.7 -1.4 -0.4 -3.2 0.4 -2.7 0.3 -3 -0.6 -1.5 -0.6 0.9 -1.5 1.5 -2.1 1.2 -1.3 -0.9 -1.1 0.9 0.3 2.3 0.9 0.9 0.5 1.2 -1.9 1.2 -2.9 0 -3 0.2 -3.6 5 -0.8 6.3 -1.2 7 -4.3 7 -2 0 -2.4 -0.5 -2.4 -3.2z"/>
  <path d="M453 26.3 c0 -6 0.9 -7.3 5.1 -7.3 3.9 0 3.9 0 3.9 5 0 5 0 5 -4.5 5 -4.2 0 -4.5 -0.2 -4.5 -2.7z"/>
  <path d="M1421 25.5 c0 -3.4 0.1 -3.5 4 -3.5 3.9 0 4 0.1 4 3.5 0 3.4 -0.1 3.5 -4 3.5 -3.9 0 -4 -0.1 -4 -3.5z"/>
  <path d="M476 22.1 c0 -6.1 0 -6.1 -6.6 -6.1 -7 0 -9.4 -1.2 -9.4 -4.9 0 -1.4 -0.6 -2.1 -1.9 -2.1 -1 0 -2.1 -0.7 -2.5 -1.5 -0.3 -0.8 -1.7 -1.5 -3.1 -1.5 -2.2 0 -2.5 0.4 -2.5 3.5 0 3.4 -0.1 3.5 -4 3.5 -3.7 0 -4 -0.2 -4 -2.7 0 -1.6 0.5 -4.5 1.1 -6.5 1 -3.8 1 -3.8 32.7 -3.7 30.4 0.1 31.5 0.2 28 1.7 -3.5 1.6 -5 3.2 -2.9 3.2 1.3 0 -4.3 10.9 -5.6 11 -0.7 0 -1.3 -0.4 -1.3 -1 0 -0.5 -0.5 -1 -1.2 -1 -0.9 0 -0.9 0.3 0 1.2 1.7 1.7 1.5 5.4 -0.4 7.2 -0.8 0.9 -1.1 1.6 -0.5 1.6 0.6 0 1.9 -0.9 2.8 -2 2.2 -2.5 5.3 -2.6 5.3 -0.2 0 3.6 -3.4 5 -13.9 5.7 -10.1 0.8 -10.1 0.8 -10.1 -5.4z"/>
  <path d="M1397 24.6 c0 -3.4 0.1 -3.5 4 -3.4 3.9 0 4 0.1 4 3.4 0 3.3 -0.1 3.4 -4 3.4 -3.9 0 -4 -0.1 -4 -3.4z"/>
  <path d="M503 25.8 c0 -1.6 2.8 -2.8 6.7 -2.8 1.7 0 2.8 -1.1 4.3 -4.4 2.1 -4.7 1.8 -8.5 -0.5 -6.6 -0.9 0.8 -1.4 0.6 -1.9 -0.6 -0.4 -1 0.1 -2.2 1.1 -3 1 -0.7 1.9 -0.9 2.1 -0.4 0.2 0.4 1.5 0.2 3 -0.6 1.5 -0.8 3.3 -1.4 4.1 -1.4 1.1 0 1.1 -0.3 0 -1.6 -0.7 -0.8 -2.1 -1.3 -3.1 -1.1 -1.3 0.4 -1.8 0 -1.8 -1.4 0 -1.8 1.5 -1.9 50.5 -1.9 44.7 0 50.5 0.2 50.5 1.5 0 0.9 -0.7 1.8 -1.5 2.1 -1 0.4 -1.3 1.3 -1 2.5 0.5 1.4 0.1 1.9 -1.2 1.9 -1.4 0 -1.5 0.2 -0.4 0.9 0.9 0.6 1.1 1.8 0.7 3.6 -0.6 2.2 -0.3 2.8 1.4 3.2 3.4 0.9 2.2 4.7 -1.5 5.1 -1.6 0.2 -3.5 0.8 -4.1 1.3 -1 0.8 -6.7 1.2 -37.1 2.4 -10.9 0.4 -13.3 0.3 -13.3 -0.9 0 -1.4 2.9 -2.6 6.8 -2.6 1.2 0 2.2 -0.4 2.2 -0.9 0 -1.3 -2.8 -2.2 -3.2 -1 -0.4 1.3 -5.8 0.1 -5.8 -1.3 0 -0.6 1.1 -0.8 2.5 -0.6 3 0.6 3.1 0.3 0.5 -2.9 -1.1 -1.4 -2 -2.2 -2 -1.7 0 0.4 -0.5 0.3 -1.1 -0.3 -1.3 -1.3 -3.9 -0.6 -3.9 0.9 0 0.5 0.5 0.6 1.2 0.2 0.7 -0.4 0.8 -0.3 0.4 0.4 -0.5 0.9 -1.3 0.9 -2.6 0.2 -2.4 -1.3 -6 -1.3 -6 0 0 0.6 0.5 1 1.1 1 0.5 0 0.7 0.5 0.4 1 -0.3 0.6 -2.1 1 -3.8 0.9 -3 0 -3.1 -0.1 -1 -1.1 2.2 -1.1 2.2 -1.1 -0.3 -3.1 -1.6 -1.2 -2.3 -2.5 -1.9 -3.5 0.3 -0.9 0.3 -1.3 -0.1 -0.9 -0.4 0.4 -1.5 0 -2.4 -0.8 -1.4 -1.3 -2 -1.2 -5.3 0.3 -3 1.4 -3.6 2.2 -3.7 4.8 0 3.1 -1.5 5.4 -3.6 5.4 -0.7 0 -1 -0.8 -0.7 -1.9 0.3 -1 0.1 -2.1 -0.4 -2.4 -1.3 -0.8 -6.3 7.2 -6.3 10 0 1.9 -0.5 2.3 -2.9 2.3 -1.5 0 -5.6 0.3 -9 0.6 -5.1 0.6 -6.1 0.4 -6.1 -0.8z"/>
  <path d="M1372 23.4 c0 -3.6 0.1 -3.6 3.1 -3 1.7 0.3 3.5 0.6 4 0.6 0.5 0 0.9 1.4 0.9 3 0 2.8 -0.2 3 -4 3 -3.9 0 -4 -0.1 -4 -3.6z"/>
  <path d="M1484.5 26 c0.3 -0.5 1.8 -1 3.3 -0.9 2.4 0 2.5 0.1 0.7 0.9 -2.8 1.2 -4.7 1.2 -4 0z"/>
  <path d="M531 24.6 c0 -1.4 2.9 -2.6 6.8 -2.6 1.5 0 2.2 0.6 2.2 2 0 1.7 -0.7 2 -4.5 2 -3.2 0 -4.5 -0.4 -4.5 -1.4z"/>
  <path d="M1344 22.5 c0 -3.5 0 -3.5 4.5 -3.5 3.2 0 4.5 0.4 4.5 1.4 0 0.8 -0.6 1.7 -1.2 1.9 -1 0.4 -1 0.6 0 0.6 0.6 0.1 1.2 0.8 1.2 1.6 0 1.1 -1.2 1.5 -4.5 1.5 -4.5 0 -4.5 0 -4.5 -3.5z"/>
  <path d="M1315 21.5 c0 -3.4 0.1 -3.5 4 -3.5 3.9 0 4 0.1 4 3.5 0 3.4 -0.1 3.5 -4 3.5 -3.9 0 -4 -0.1 -4 -3.5z"/>
  <path d="M1282 20.5 c0 -3.5 0 -3.5 4.5 -3.5 4.5 0 4.5 0 4.5 3.5 0 3.5 0 3.5 -4.5 3.5 -4.5 0 -4.5 0 -4.5 -3.5z"/>
  <path d="M628 21.4 c0 -0.8 0.7 -1.4 1.5 -1.4 1 0 1.5 -1 1.5 -3.1 0 -1.8 0.7 -3.7 1.6 -4.4 1.7 -1.2 4.4 -7.7 4.4 -10.7 0 -1.7 2.6 -1.8 40.8 -1.8 40.7 0 40.7 0 51.7 3.4 6 1.8 11.1 3.8 11.3 4.4 0.2 0.6 1 0.8 1.8 0.5 1.8 -0.7 21 5.5 22.9 7.4 0.8 0.7 1.8 1.3 2.4 1.3 0.6 0 1.1 0.7 1.1 1.5 0 1.1 -1.2 1.5 -4.9 1.5 -2.7 0 -5.6 -0.3 -6.5 -0.6 -2.5 -1 -1.9 -2.4 1 -2.4 2.3 0 2.4 -0.2 1 -1.5 -1.6 -1.6 -9.5 -2.3 -11.6 -1 -2.6 1.6 -7 1.6 -7.6 0 -0.5 -1.1 -1 -1.3 -1.9 -0.5 -2.6 2.1 -9.1 -0.9 -10.1 -4.7 0 -0.1 -1.6 -0.5 -3.5 -0.8 -8.9 -1.3 -10.8 -1.3 -12 0.1 -0.6 0.8 -1.8 1.4 -2.5 1.4 -0.8 0 -1.3 0.5 -1.1 1.2 0.1 0.6 -1.7 1.6 -4.1 2.2 -2.4 0.6 -4 1.5 -3.5 2 0.4 0.4 -0.1 0.7 -1.2 0.5 -1.1 -0.2 -2.6 0 -3.3 0.5 -0.8 0.5 -1.8 0.4 -2.5 -0.3 -1.7 -1.7 -6.4 -1.4 -6.4 0.4 0 1.2 1.7 1.5 8.6 1.6 6.8 0.1 7.9 0.3 5.1 0.9 -5.8 1.4 -30.2 2.9 -52.7 3.3 -17.5 0.4 -21.3 0.2 -21.3 -0.9z"/>
  <path d="M1246 19.5 c0 -3.5 0 -3.5 4.5 -3.5 4.5 0 4.5 0 4.5 3.5 0 3.5 0 3.5 -4.5 3.5 -4.5 0 -4.5 0 -4.5 -3.5z"/>
  <path d="M342 21 c0 -0.5 -1.8 -1 -4.1 -1 -3.3 0 -4 -0.3 -3.7 -1.7 0.2 -1.1 1.4 -1.9 2.8 -2.1 1.4 -0.1 3.6 -0.5 5 -0.9 2.5 -0.6 2.5 -0.6 -0.5 -1.2 -3.7 -0.7 -4.4 -3.7 -2.1 -8.6 0.9 -1.8 1.6 -3.8 1.6 -4.4 0 -0.7 3.5 -1.1 10.5 -1.1 5.8 0 10.5 0.4 10.5 0.8 0 1.8 -6.2 12.2 -7.8 13.2 -1.4 0.7 -1.1 0.9 1.5 1 2.6 0 3 0.3 2.6 2 -0.3 1.1 -1.4 2 -2.4 2 -1.1 0 -2.2 0.7 -2.5 1.5 -0.4 0.8 -1.5 1.5 -2.5 1.5 -1.4 0 -1.9 -0.7 -1.9 -3 0 -1.6 -0.5 -3 -1.1 -3 -0.5 0 -1.5 1.4 -2 3 -1 2.8 -3.9 4.3 -3.9 2z"/>
  <path d="M1204 18.5 c0 -3.5 0 -3.5 5 -3.5 5 0 5 0 5 3.5 0 3.5 0 3.5 -5 3.5 -5 0 -5 0 -5 -3.5z"/>
  <path d="M1588 18.8 c0 -7.5 2.6 -10.2 4.8 -5.3 1.4 3 1.5 3.8 0.4 3.1 -0.4 -0.2 -1.4 0.9 -2.1 2.5 -1.7 3.8 -3.1 3.7 -3.1 -0.3z"/>
  <path d="M427.3 20.3 c-0.7 -0.2 -1.3 -2 -1.3 -3.9 0 -3.4 0 -3.4 4.5 -3.4 4.5 0 4.5 0 4.5 4 0 3.9 -0.1 4 -3.2 3.9 -1.8 0 -3.9 -0.3 -4.5 -0.6z"/>
  <path d="M719 19.6 c0 -1.6 3 -2.6 7.8 -2.6 2.5 0 3.2 0.4 3.2 2 0 1.8 -0.7 2 -5.5 2 -4 0 -5.5 -0.4 -5.5 -1.4z"/>
  <path d="M1152.9 20.6 c-0.5 -0.5 -78 -1.5 -118.6 -1.6 -27.1 0 -31.3 -0.2 -31.3 -1.5 0 -0.8 0.6 -1.5 1.3 -1.5 0.8 0 2.2 -0.9 3.2 -2 1.5 -1.7 1.6 -2.4 0.5 -4.9 -0.7 -1.7 -0.9 -4.3 -0.5 -6 0.6 -2.9 0.9 -3.1 5.2 -3.1 4.6 0 4.6 0 3.9 3.2 -0.3 1.8 -1.2 3.6 -1.9 4 -0.7 0.5 -0.2 0.8 1.5 0.8 1.4 0 3.3 0.3 4.2 0.6 1.3 0.5 1.6 -0.2 1.6 -4 0 -4.6 0 -4.6 22.3 -4.6 16.5 0 22.6 0.3 23.6 1.2 1.1 1 1.4 1 1.8 0.1 0.6 -1.8 3 -1.6 3.7 0.2 0.3 0.8 1.6 1.5 2.8 1.5 2.3 -0.1 2.3 -0.1 -0.2 -1.5 -2.2 -1.2 0.3 -1.4 21.3 -1.4 19.4 0 23.7 0.3 23.7 1.4 0 0.8 -0.4 1.7 -1 2 -0.5 0.3 -1 1.3 -1 2 0 2.6 3.1 0.4 3.7 -2.6 0.6 -2.9 0.6 -2.9 35.4 -2.9 34.8 0 34.8 0 33.8 3.2 -0.5 1.8 -0.9 3.4 -0.9 3.6 0 0.1 -1.1 0.7 -2.5 1.2 -1.4 0.5 -2.5 1.6 -2.5 2.3 0 1.6 -4.2 5.4 -7.3 6.7 -1.8 0.7 -1.3 0.9 2.3 1 4.5 0.2 4.5 0.2 1.5 1.5 -2 1 -7.2 1.4 -16.1 1.5 -7.2 0 -13.3 -0.2 -13.5 -0.4z m-51 -4.5 c0.8 -0.5 1.1 -1.6 0.8 -2.5 -0.4 -1 -0.1 -1.6 0.8 -1.6 0.9 0 1.2 -0.6 0.9 -1.5 -0.4 -0.8 -0.2 -1.5 0.3 -1.5 1.2 0 3.6 -5 2.8 -5.8 -0.3 -0.3 -1.4 0.4 -2.4 1.5 -1.1 1.1 -3.6 2.4 -5.5 2.7 -3.4 0.6 -3.6 0.9 -3.6 4.5 0 2.1 0.3 4.1 0.7 4.4 0.9 1 3.5 0.8 5.2 -0.2z m26.4 0.2 c-2.8 -0.5 -2.9 -1.5 -0.3 -3.8 3.6 -3.3 2.3 -4.8 -1.6 -1.9 -2.5 1.9 -4.6 2.7 -7.2 2.6 -3.7 -0.2 -3.7 -0.2 -0.7 1.7 1.9 1.2 4.7 1.9 7.5 1.9 2.5 0 3.5 -0.3 2.3 -0.5z m31.7 -1.3 c0 -2.4 0.6 -2.5 2.6 -0.5 1.1 1.1 1.2 1.5 0.3 1.5 -0.7 0 -1 0.3 -0.6 0.6 0.3 0.3 1.5 -0.1 2.7 -0.9 2.2 -1.5 2.2 -1.5 -0.2 -2.2 -1.2 -0.4 -3 -1.4 -4 -2.2 -1.7 -1.5 -2.1 -1.2 -3.7 3.1 -0.9 2.3 -0.8 2.6 0.9 2.6 1.3 0 2 -0.7 2 -2z m-93.4 -0.5 c-1.9 -1.4 -3.6 -1.2 -3.6 0.6 0 0.5 1.2 0.9 2.8 0.9 2.6 -0.1 2.6 -0.1 0.8 -1.5z m-19 -4.7 c1.8 -3.5 1.5 -7.3 -0.6 -7.3 -0.8 0 -1.9 1.4 -2.3 3 -0.5 1.7 -1.3 3.8 -1.8 4.7 -1.4 2.8 -1.1 3.7 1.1 3.1 1.2 -0.3 2.8 -1.9 3.6 -3.5z m65.8 2.1 c-0.7 -1.1 -5.4 -1.2 -5.4 -0.1 0 1.5 1 1.9 3.5 1.4 1.4 -0.2 2.2 -0.8 1.9 -1.3z m-26.4 -4.4 c0 -0.8 -0.6 -1.5 -1.4 -1.5 -0.7 0 -1.9 -0.7 -2.6 -1.5 -0.7 -0.8 -2 -1.5 -2.9 -1.4 -1 0 -1.1 0.2 -0.3 0.6 0.6 0.2 1.2 1.1 1.2 1.9 0 0.8 1 1.9 2.3 2.4 3.2 1.3 3.7 1.2 3.7 -0.5z m7 -0.5 c-0.8 -0.5 -2.4 -0.9 -3.5 -0.9 -2 0 -2 0 0 0.9 1.1 0.5 2.7 0.9 3.5 0.9 1.3 0.1 1.3 0 0 -0.9z m-22.3 -1.6 c0.5 -1.4 -3.5 -2.6 -4.3 -1.3 -0.8 1.4 0.6 3 2.4 2.7 0.8 -0.2 1.7 -0.8 1.9 -1.4z m91.4 -0.1 c1 -1.1 1 -1.4 0.2 -0.9 -0.9 0.5 -1.3 0.1 -1.4 -1.1 0 -1.6 -0.1 -1.6 -0.8 0.2 -0.8 1.8 -0.6 3.5 0.3 3.5 0.2 0 1 -0.8 1.7 -1.7z"/>
  <path d="M785 18.6 c0 -1.7 3.1 -2.6 9.3 -2.6 4 0 4.7 0.3 4.7 2 0 1.8 -0.7 2 -7 2 -5.3 0 -7 -0.3 -7 -1.4z"/>
  <path d="M368 17 c0 -1.4 0.7 -2 2.2 -2 2 0 2.1 0.1 0.3 2 -1 1.1 -2 2 -2.2 2 -0.1 0 -0.3 -0.9 -0.3 -2z"/>
  <path d="M735 18 c-2.5 -0.5 -0.5 -0.8 6.5 -0.9 6.8 0 9.5 0.2 8.5 0.9 -1.7 1.1 -9.8 1.1 -15 0z"/>
  <path d="M906.5 17.5 c-6 -1.2 -6 -1.2 1.5 -1.4 4.2 -0.2 6.7 -0.6 5.7 -1 -1.8 -0.6 -1.7 -0.8 0.1 -3.1 2.2 -2.9 3.4 -7.1 2.4 -8.6 -0.4 -0.6 -1.6 -1.5 -2.7 -2 -1.5 -0.6 -0.4 -0.9 4.4 -1.2 3.5 -0.2 7 -0.1 7.7 0.2 1.7 0.7 1.8 2.6 0.2 2.6 -0.7 0 -3.1 1.5 -5.2 3.3 -3.5 3 -3.8 3.5 -2.7 5.6 0.8 1.3 1.8 2 2.7 1.7 0.8 -0.3 1.4 0.1 1.4 0.9 0 0.8 0.7 1.5 1.5 1.5 0.8 0 1.5 0.7 1.5 1.5 0 1.9 -9.6 1.9 -18.5 0z"/>
  <path d="M946.6 17.5 c-0.3 -1 0.1 -1.5 1.3 -1.5 1.6 0 1.8 -0.7 1.4 -5.2 -0.5 -6.5 -1.9 -9.6 -4.7 -10.1 -1.2 -0.2 2.7 -0.5 8.6 -0.6 7.7 -0.1 10.8 0.2 11.1 1.2 0.4 1 0.6 1 0.6 0 0.1 -1.5 22.1 -1.9 22.1 -0.4 0 1 -3 2.5 -4.6 2.2 -0.7 -0.1 -1.7 1.2 -2.2 2.9 -0.6 1.6 -1.6 3 -2.2 3 -0.6 0 -1.8 0.7 -2.6 1.5 -1.8 1.8 -1 5.5 1.2 5.5 0.8 0 1.4 0.7 1.4 1.5 0 1.3 -2.4 1.5 -15.4 1.5 -12.8 0 -15.5 -0.3 -16 -1.5z m20.4 -3.3 c0.3 -0.2 -0.1 -0.7 -0.7 -0.9 -0.7 -0.3 -1.3 -1.6 -1.3 -2.9 0 -1.4 -0.6 -2.4 -1.5 -2.4 -1.7 0 -3.5 3 -3.5 6 0 1.9 0.4 2.1 3.3 1.5 1.7 -0.4 3.4 -1 3.7 -1.3z"/>
  <path d="M172.8 16.3 c-2.1 -0.5 -2.3 -1.9 -0.5 -3 2 -1.3 6.7 -8 6 -8.7 -1.2 -1.2 3.1 -4.6 5.8 -4.6 2.7 0 2.7 0 1.1 4.1 -1.3 3.3 -9.3 13.2 -10.4 12.8 -0.2 -0.1 -1.1 -0.3 -2 -0.6z"/>
  <path d="M40.3 11.7 c0.8 -1.2 2.3 -2.3 3.3 -2.5 1.2 -0.2 1.5 0 0.8 0.5 -0.6 0.4 -1.3 1.4 -1.6 2.2 -0.2 0.8 -1.2 1.5 -2.2 1.7 -1.6 0.2 -1.6 0 -0.3 -1.9z"/>
  <path d="M897.8 13.3 c-2.5 -0.3 -3.8 -0.9 -3.8 -1.9 0 -1.8 3 -1.8 5.6 0 1.1 0.8 3.1 1.6 4.4 1.9 2.5 0.4 2.5 0.4 0 0.4 -1.4 0 -4.2 -0.2 -6.2 -0.4z"/>
  <path d="M308.7 11.3 c0.6 -1.6 0.5 -1.6 -1 -0.4 -1.5 1.2 -1.7 1.1 -1.7 -0.3 0 -1.9 -3.8 -1.8 -6.3 0.2 -2.8 2.3 -2.9 -1.7 -0.1 -6.4 2.6 -4.4 2.6 -4.4 10.7 -4.4 8 0 8 0 6 2.3 -1.1 1.2 -2.9 3.3 -4.1 4.6 -1.2 1.4 -2.2 3 -2.2 3.7 0 0.7 -0.4 1.6 -1 1.9 -0.6 0.4 -0.7 -0.1 -0.3 -1.2z"/>
  <path d="M281.5 8.3 c0.2 -1 0.4 -2.1 0.4 -2.5 0.2 -2.1 2.1 -0.5 2.1 1.7 0 1.5 -0.6 2.5 -1.4 2.5 -0.8 0 -1.3 -0.8 -1.1 -1.7z"/>
  <path d="M868.5 9 c-0.3 -0.5 0.3 -1 1.4 -1 1.2 0 2.1 0.5 2.1 1 0 0.6 -0.6 1 -1.4 1 -0.8 0 -1.8 -0.4 -2.1 -1z"/>
  <path d="M1598 7.7 c0 -1.7 3.4 -4.9 4.3 -4.1 0.7 0.8 -0.3 3.7 -1.7 4.6 -1.7 1.2 -2.6 0.9 -2.6 -0.5z"/>
  <path d="M39.1 6.9 c0 -1 -0.9 -1.5 -2.3 -1.4 -1.3 0.1 -2.9 -0.2 -3.5 -0.8 -0.9 -0.6 -1.8 -0.5 -2.8 0.3 -1.2 1 -1.5 1 -1.5 -0.1 0 -1 -0.3 -1 -1.2 -0.1 -1.6 1.6 -3 1.5 -2.6 -0.2 0.2 -0.8 0 -1.5 -0.5 -1.6 -1.7 -0.3 -6.7 1.2 -6.7 2.1 0 0.5 -0.5 0.9 -1.2 0.9 -0.9 0 -0.9 -0.3 0 -1.2 1.7 -1.7 1.5 -3.1 -0.4 -2.4 -1 0.4 -1.4 0.1 -1.2 -0.6 0.6 -1.7 9.6 -2.3 11.4 -0.7 1 0.8 1.4 0.8 1.4 0 0 -0.7 3.3 -1.1 10 -1.1 9.1 0 10 0.2 10 1.9 0 1.5 -0.7 1.8 -3.9 1.6 -3.6 -0.3 -4 0 -4.4 2.4 -0.2 1.4 -0.5 1.9 -0.6 1z"/>
  <path d="M617.8 7.1 c0.8 -0.4 1.3 -1.2 1.2 -1.7 0 -0.5 0.6 -1.1 1.5 -1.2 1.4 -0.3 1.4 -0.1 0.3 1.7 -0.7 1.2 -2 2.1 -2.8 2.1 -1.2 0 -1.2 -0.2 -0.2 -0.9z"/>
  <path d="M0.2 3.3 c0.3 -2.6 0.6 -2.8 5.7 -3.1 5.9 -0.3 7.7 0.9 5.8 3.9 -0.8 1.3 -1.3 1.5 -1.9 0.6 -0.5 -0.9 -1 -0.9 -2 0.1 -0.6 0.6 -2.7 1.2 -4.6 1.2 -3 0 -3.3 -0.2 -3 -2.7z"/>
  <path d="M858.5 5 c-0.3 -0.5 0.1 -1 0.9 -1 0.8 0 1.8 0.5 2.1 1 0.3 0.6 -0.1 1 -0.9 1 -0.8 0 -1.8 -0.4 -2.1 -1z"/>
  <path d="M49.5 4 c-1.2 -1.9 0.5 -3.1 2.7 -1.9 1.7 0.9 1.8 1.3 0.7 2 -1.8 1.1 -2.6 1.1 -3.4 -0.1z"/>
  <path d="M1637 2.5 c-4.5 -2.4 -4.5 -2.4 0.8 -2.5 4.9 0 5.2 0.1 5.2 2.5 0 3 -0.3 3 -6 0z"/>
  <path d="M860.5 2.3 c-2.1 -0.8 -4.1 -1.6 -4.4 -1.8 -0.9 -0.9 7.4 -0.5 8.9 0.5 2.8 1.8 -0.4 2.7 -4.5 1.3z"/>
  <path d="M928 3.5 c0 -1.5 1.8 -4 2.4 -3.4 0.3 0.3 -0.1 1.4 -0.9 2.5 -0.8 1 -1.4 1.5 -1.5 0.9z"/>
 </g>
 <g fill="#0a0f23">
  <path d="M942.7 89.4 c-0.6 -0.6 -15.7 -1 -76.7 -1.9 -15.1 -0.2 -29.7 -0.6 -32.5 -1 -2.7 -0.3 -10.8 -0.7 -18 -0.9 -7.1 -0.2 -14.6 -0.7 -16.5 -1.1 -1.9 -0.4 -9.1 -0.8 -16 -1 -6.9 -0.1 -13.8 -0.5 -15.5 -0.9 -1.6 -0.4 -7 -0.9 -12 -1 -4.9 -0.2 -10.3 -0.7 -12 -1.1 -1.6 -0.4 -7.3 -0.9 -12.5 -1.1 -10.9 -0.4 -12 -0.5 -12 -1.3 0 -0.3 -3.7 -0.6 -8.2 -0.7 -4.6 -0.1 -9.6 -0.4 -11.3 -0.8 -1.6 -0.4 -6.1 -0.9 -10 -1.1 -6 -0.3 -11 -0.9 -11 -1.5 0 -0.1 -2.7 -0.3 -6 -0.5 -3.3 -0.1 -7.3 -0.6 -9 -1 -1.6 -0.4 -5.6 -0.7 -8.8 -0.8 -3.1 0 -5.7 -0.5 -5.7 -0.9 0 -0.5 -0.5 -0.6 -1 -0.3 -0.5 0.3 -1 0.3 -1 -0.2 0 -0.4 -2.8 -0.9 -6.3 -0.9 -3.4 -0.1 -7.5 -0.5 -9.2 -0.9 -1.6 -0.4 -5 -0.8 -7.5 -0.9 -2.5 -0.1 -5.6 -0.6 -6.9 -1 -1.3 -0.4 -4.2 -0.9 -6.5 -1.1 -2.2 -0.1 -5.4 -0.6 -7.1 -1 -1.6 -0.4 -5.1 -0.8 -7.7 -0.8 -2.7 -0.1 -4.8 -0.4 -4.8 -0.9 0 -0.4 -0.3 -0.7 -0.7 -0.7 -0.5 0.1 -1.2 0 -1.8 -0.1 -0.5 -0.1 -2.9 -0.2 -5.3 -0.2 -2.3 0 -4.2 -0.5 -4.2 -1 0 -0.5 -0.4 -0.6 -1 -0.3 -0.5 0.3 -1 0.2 -1 -0.3 0 -0.5 -2.1 -0.8 -4.6 -0.6 -2.6 0.2 -5.4 -0.1 -6.3 -0.5 -0.9 -0.5 -3.6 -1 -6.1 -1.2 -2.5 -0.2 -4.8 -0.7 -5.1 -1.2 -0.4 -0.5 -3.3 -1 -6.6 -1.1 -3.2 -0.1 -6.6 -0.6 -7.4 -1.1 -0.8 -0.5 -2.5 -0.8 -3.9 -0.7 -1.4 0.2 -4.1 -0.3 -6 -1.1 -1.9 -0.8 -5 -1.2 -6.7 -1 -2 0.2 -3.3 0 -3.3 -0.7 0 -0.6 -0.4 -0.9 -0.9 -0.5 -0.5 0.3 -1.2 0.2 -1.4 -0.2 -0.3 -0.5 -2 -0.8 -3.8 -0.7 -1.9 0 -3.9 -0.4 -4.5 -1.1 -0.6 -0.6 -3.4 -1 -6.2 -1 -3.3 0.1 -5.3 -0.3 -5.6 -1.1 -0.3 -0.8 -1.7 -1 -4 -0.7 -2 0.2 -3.6 0.1 -3.6 -0.4 0 -0.9 -2.7 -1.5 -7.2 -1.5 -1.6 0 -2.8 -0.5 -2.8 -1 0 -0.5 -0.4 -0.7 -0.9 -0.3 -0.5 0.3 -1.2 0.2 -1.4 -0.2 -0.3 -0.5 -2 -0.8 -3.9 -0.7 -1.8 0.1 -3.6 -0.3 -4 -0.9 -0.3 -0.6 -2.7 -1 -5.2 -1.1 -2.5 0 -4.6 -0.4 -4.6 -0.8 0 -0.4 -1.6 -0.8 -3.6 -0.8 -1.9 0 -4.2 -0.6 -5 -1.4 -0.8 -0.9 -2.9 -1.3 -5.3 -1.1 -2.8 0.2 -4.1 -0.1 -4.5 -1.2 -0.3 -0.8 -1.1 -1.1 -1.7 -0.7 -1.6 0.9 -8.9 -1.6 -8.9 -3.2 0 -0.8 2.8 -1.4 8.7 -1.8 17.6 -1.2 94.4 -3.8 118 -4 13.4 0 24.3 -0.4 24.3 -0.8 0 -0.5 2.5 -0.8 5.5 -0.8 4.7 0 5.5 0.3 5.5 1.9 0 2.1 2 2.8 12 4.1 3.6 0.5 9.7 1.4 13.5 2 3.9 0.6 10.2 1.5 14 2 3.9 0.5 10.2 1.4 14 2 3.9 0.6 10.6 1.5 15 2 4.4 0.5 11.4 1.4 15.5 1.9 4.1 0.6 12.5 1.5 18.5 2.1 6.1 0.7 14.6 1.6 19 2.1 18 2.1 66.4 6 98.5 7.8 76.5 4.5 187.6 4.5 255 0.1 7.4 -0.5 20.9 -1.4 30 -2 9.1 -0.6 20.6 -1.5 25.5 -2 5 -0.5 15.1 -1.4 22.5 -2 17 -1.4 38.5 -3.7 57 -6 4.7 -0.6 12.2 -1.3 16.8 -1.6 4.5 -0.3 8.2 -0.9 8.2 -1.4 0 -0.5 2.8 -1.1 6.3 -1.4 8.5 -0.7 20.9 -2.3 28.7 -3.6 3.6 -0.6 9.4 -1.5 13 -1.9 10 -1.4 12 -2.1 12 -4.2 0 -1.6 0.8 -1.9 5.5 -1.9 3 0 5.5 0.3 5.5 0.8 0 0.4 10.9 0.8 24.3 0.8 23.6 0.2 100.4 2.8 118 4 6.5 0.5 8.7 1 8.7 2 0 0.8 -0.7 1.4 -1.5 1.4 -0.8 0 -1.5 0.4 -1.5 0.9 0 0.5 -1.6 0.8 -3.6 0.7 -2 -0.1 -3.8 0.4 -4.1 1 -0.2 0.6 -2 1.1 -3.9 0.9 -1.9 -0.1 -3.7 0.2 -4 0.7 -0.3 0.4 -1 0.6 -1.5 0.3 -0.5 -0.4 -0.9 -0.2 -0.9 0.2 0 0.5 -1.7 1 -3.7 1.1 -2.1 0.2 -4 0.7 -4.3 1.1 -0.3 0.5 -2.2 0.7 -4.3 0.6 -2.1 -0.2 -4.3 0.2 -5 0.9 -0.7 0.7 -2.5 1.2 -4.2 1.2 -1.6 0 -3.9 0.5 -5 1.1 -1.1 0.6 -3.7 1 -5.7 0.9 -2.1 -0.2 -3.8 0.2 -3.8 0.6 0 0.5 -0.4 0.6 -1 0.3 -0.5 -0.3 -1 -0.1 -1 0.5 0 0.8 -1.3 1 -3.6 0.7 -2.2 -0.3 -3.7 -0.1 -4 0.7 -0.2 0.6 -2.9 1.2 -6.1 1.3 -3.1 0.1 -5.9 0.6 -6.2 1.1 -0.3 0.5 -2.1 0.8 -3.9 0.7 -1.8 -0.1 -3.5 0.2 -3.8 0.7 -0.3 0.5 -1 0.6 -1.5 0.3 -0.5 -0.4 -0.9 -0.2 -0.9 0.3 0 0.5 -1.5 0.8 -3.2 0.7 -1.8 -0.1 -4.8 0.4 -6.6 1.1 -1.8 0.7 -5.2 1.4 -7.7 1.5 -2.5 0.2 -4.5 0.6 -4.5 1 0 0.3 -2.5 0.7 -5.6 0.7 -3.1 0 -5.9 0.4 -6.3 0.9 -0.3 0.5 -2.6 1 -5.1 1.2 -2.5 0.2 -5.2 0.7 -6 1.1 -0.8 0.4 -3.3 0.8 -5.5 0.9 -5.9 0.1 -7.5 0.4 -7.5 1.1 0 0.5 -3.9 1 -10.7 1.3 -0.7 0 -1.3 0.3 -1.3 0.7 0 0.4 -2.7 0.6 -6 0.5 -3.3 -0.1 -6 0.1 -6 0.5 0 0.9 -0.2 0.9 -14.7 2.2 -0.7 0.1 -1.3 0.4 -1.3 0.8 0 0.4 -2.7 0.6 -6 0.5 -3.3 0 -6 0.2 -6 0.7 0 0.4 -0.9 0.5 -2 0.3 -1.1 -0.2 -2 0.1 -2 0.6 0 0.5 -2.4 0.9 -5.4 0.8 -2.9 -0.1 -5.9 0.2 -6.7 0.7 -0.8 0.5 -4.5 1 -8.4 1.2 -10.2 0.4 -11.5 0.5 -11.5 1.3 0 0.4 -2.5 0.7 -5.6 0.5 -3.1 -0.1 -5.8 0.2 -6 0.6 -0.2 0.4 -1.3 0.5 -2.4 0.3 -1.1 -0.2 -2 0 -2 0.5 0 0.4 -3.6 0.7 -8 0.6 -4.4 -0.1 -8 0.2 -8 0.6 0 0.4 -0.9 0.5 -2 0.3 -1.1 -0.2 -2 0 -2 0.4 0 0.4 -3 0.8 -6.7 0.8 -3.8 0.1 -8.1 0.4 -9.8 0.8 -1.6 0.4 -7.5 0.9 -13 1.2 -14.6 0.7 -14.5 0.6 -14.5 1.3 0 0.4 -4.4 0.7 -9.7 0.9 -13 0.3 -14.3 0.4 -14.3 1.1 0 0.4 -5.1 0.7 -11.2 0.7 -13.4 0.1 -20.8 0.6 -20.8 1.4 0 0.3 -6 0.7 -13.2 0.8 -18.2 0.2 -22.8 0.5 -22.8 1.1 0 0.3 -14.1 0.7 -31.2 0.8 -56.8 0.4 -68.3 0.7 -68.9 1.5 -0.3 0.4 -0.8 0.4 -1.2 0.1z"/>
 </g>
 <g fill="#191b19">
  <path d="M1882.5 62.9 c-13.3 -1.6 -15.5 -2 -15.5 -3 0 -0.5 1.2 -0.9 2.6 -0.9 2.3 0 2.4 -0.2 1 -1.5 -0.8 -0.8 -1.9 -1.5 -2.4 -1.5 -1 0 -2.5 -2.6 -2.7 -4.5 -0.1 -2 -4.3 -6.5 -5.9 -6.5 -0.9 0 -1.6 -0.3 -1.6 -0.7 0 -1.3 -5.2 -3.3 -8.2 -3.3 -1.5 0 -2.8 -0.4 -2.8 -1 0 -0.5 0.5 -1 1.2 -1 2.7 0 -1 -1.7 -6 -2.8 -4.4 -1 -5.8 -0.9 -8.3 0.3 -3.2 1.7 -7 7 -8.8 12.7 -0.8 2.5 -1.9 3.8 -3.4 4.1 -1.3 0.3 -0.7 0.5 1.6 0.6 5 0.1 4.7 2.1 -0.4 2.1 -3.8 0 -50.8 -4.4 -59.6 -5.6 -5.3 -0.7 -5.6 -2.4 -0.5 -2.5 2.3 -0.1 2.8 -0.3 1.5 -0.6 -1.3 -0.2 -2.3 -0.7 -2.3 -1.1 0 -0.6 3.6 -11.5 4.9 -14.7 3.1 -7.5 3.1 -7.4 1.5 -9 -0.9 -0.8 -2.2 -1.5 -2.9 -1.5 -0.8 0 -1.7 -0.5 -2.1 -1.2 -0.5 -0.8 -0.2 -0.9 1 -0.5 5.6 2.2 6.3 2 7.6 -1.7 0.6 -2 1 -4.2 0.8 -4.8 -0.3 -0.7 0.1 -1.8 0.7 -2.5 0.7 -0.6 1.9 -3.2 2.6 -5.7 1.3 -4.6 1.3 -4.6 59.6 -4.6 58.3 0 58.3 0 58.3 32 0 36.7 1.6 32.5 -11.5 30.9z m5.3 -2.6 c-1 -0.2 -2.6 -0.2 -3.5 0 -1 0.3 -0.2 0.5 1.7 0.5 1.9 0 2.7 -0.2 1.8 -0.5z m-8 -1 c-1 -0.2 -2.6 -0.2 -3.5 0 -1 0.3 -0.2 0.5 1.7 0.5 1.9 0 2.7 -0.2 1.8 -0.5z m-64 -7 c-1 -0.2 -2.6 -0.2 -3.5 0 -1 0.3 -0.2 0.5 1.7 0.5 1.9 0 2.7 -0.2 1.8 -0.5z m-10 -1 c-1 -0.2 -2.8 -0.2 -4 0 -1.3 0.2 -0.5 0.4 1.7 0.4 2.2 0.1 3.2 -0.1 2.3 -0.4z m-10 -1 c-1 -0.2 -2.8 -0.2 -4 0 -1.3 0.2 -0.5 0.4 1.7 0.4 2.2 0.1 3.2 -0.1 2.3 -0.4z m-10 -1 c-1 -0.2 -2.8 -0.2 -4 0 -1.3 0.2 -0.5 0.4 1.7 0.4 2.2 0.1 3.2 -0.1 2.3 -0.4z m-11 -1 c-1 -0.2 -2.6 -0.2 -3.5 0 -1 0.3 -0.2 0.5 1.7 0.5 1.9 0 2.7 -0.2 1.8 -0.5z"/>
  <path d="M1716.3 46.3 c-1.8 -0.2 -3.3 -0.8 -3.3 -1.4 0 -0.5 -5.5 -0.9 -12.7 -0.9 -7.1 0 -24.9 -0.9 -39.8 -2 -14.8 -1.1 -28.2 -2 -29.7 -2 -1.8 0 -2.8 -0.5 -2.8 -1.5 0 -0.8 0.6 -1.5 1.3 -1.5 1.3 0 3.7 -5.3 3.7 -8.2 0 -0.9 0.7 -1.9 1.6 -2.2 0.9 -0.3 1.4 -1.3 1 -2.1 -0.3 -0.8 -0.1 -1.7 0.4 -2 0.6 -0.4 0.7 -1.7 0.4 -2.9 -0.4 -1.7 0 -2.8 1.6 -3.9 2.3 -1.6 4.4 -1.3 7.1 1 1.4 1.2 1.7 1.2 2.3 -0.2 0.3 -0.9 0.6 -2.4 0.6 -3.3 0 -1.3 -0.2 -1.4 -0.9 -0.4 -1.6 2.5 -4.6 0.9 -4.9 -2.6 -0.3 -2.5 0 -3.2 1.5 -3.2 1.3 0 0.8 -0.6 -1.4 -2 -4.7 -2.8 -3.5 -5 2.7 -5 2.9 0 5 0.5 5.3 1.3 0.4 0.9 0.6 0.9 0.6 0 0.1 -1.8 8.9 -1.7 10.6 0.1 0.8 0.7 1.1 1.6 0.8 2 -1.2 1.1 1.2 0.5 3.7 -0.9 2.5 -1.5 2.5 -1.5 -0.2 -1.1 -1.5 0.3 -3 0 -3.3 -0.5 -1 -1.5 21.8 -1.1 23.4 0.4 1.1 1 1.3 0.9 0.7 -0.1 -0.5 -0.8 0.2 -1.2 2.3 -1.2 1.6 0 3.2 0.6 3.4 1.3 0.4 0.9 0.6 0.8 0.6 -0.2 0.1 -1.1 0.4 -1.1 1.8 0 1 0.8 1.4 0.9 1 0.2 -0.5 -0.8 0 -1.1 1.3 -1 1.1 0.1 2 0.5 2 0.9 0 0.5 1 0.4 2.1 -0.3 1.5 -0.8 1.9 -0.8 1.5 0 -0.4 0.6 0 1.1 0.9 1.1 0.9 0 1.4 -0.3 1.2 -0.7 -0.3 -0.5 3.2 -0.9 7.8 -1.1 5.2 -0.2 8.5 0.1 9 0.7 0.3 0.6 1.1 0.9 1.6 0.5 1.3 -0.7 0.7 1.9 -0.6 2.8 -0.5 0.4 0.6 0.8 2.5 0.8 2.5 0 3.1 -0.3 2.1 -0.9 -2.3 -1.5 -2.2 -4.1 0.1 -4.1 1.8 0 1.9 0.2 0.7 1.8 -1.3 1.6 -1.2 1.6 0.6 0.1 2.5 -2 11.5 -2.6 11.5 -0.7 0 0.7 -0.7 2.7 -1.6 4.3 -0.9 1.7 -1.8 4.1 -2.1 5.5 -0.2 1.4 -1.1 3.2 -1.9 4.1 -0.8 0.8 -1.1 1.8 -0.8 2.1 0.8 0.9 -7 0.3 -8.4 -0.6 -0.7 -0.4 -1.2 -0.3 -1.2 0.1 0 0.5 -1.1 0.9 -2.5 0.9 -1.4 0 -2.5 -0.6 -2.5 -1.4 0 -0.7 -0.4 -1.1 -0.9 -0.7 -0.5 0.3 -1.2 0.1 -1.6 -0.5 -0.3 -0.5 -1.1 -1 -1.6 -1 -0.6 0 -0.7 0.5 -0.4 1 0.4 0.6 -0.5 1 -1.9 1 -1.4 0 -2.6 0.6 -2.6 1.3 0 0.8 -0.2 0.9 -0.8 0.1 -0.4 -0.7 -1.6 -1.4 -2.7 -1.7 -1.5 -0.3 -1.2 -0.5 1 -0.7 2.7 -0.1 2.8 -0.2 1 -1.1 -1.6 -0.8 -1.4 -0.8 1.2 -0.5 2.5 0.4 3.1 0.2 2.9 -1.1 -0.2 -0.9 -0.9 -1.9 -1.6 -2.1 -0.8 -0.3 -1 0 -0.5 0.7 0.5 0.9 -0.9 1.1 -5.4 0.8 -3.4 -0.3 -6.1 -0.1 -6.1 0.4 0 0.5 0.7 0.9 1.6 0.9 0.8 0 1.2 0.5 0.9 1 -0.3 0.6 0.2 1 1.2 1.1 1.7 0 1.7 0.1 0 0.8 -1 0.4 -1.8 1.1 -1.8 1.6 0 0.5 0.8 1.2 1.8 1.6 1.7 0.7 1.7 0.8 0.1 0.8 -1 0.1 -1.8 0.5 -1.8 1 0 0.5 1.7 0.7 3.8 0.4 2.5 -0.3 3.2 -0.1 2.3 0.5 -1.1 0.8 -1.1 1 0 1.5 1 0.4 1 0.6 0.2 0.6 -0.7 0.1 -1.3 0.8 -1.3 1.6 0 1.1 1.2 1.5 5.1 1.5 2.7 0 4.8 -0.4 4.5 -0.9 -0.8 -1.2 7.7 -0.9 8.6 0.4 0.5 0.6 0.8 0.5 0.8 -0.2 0 -0.7 0.5 -1.3 1.1 -1.3 0.5 0 0.7 0.5 0.4 1 -0.3 0.6 -0.2 1 0.3 1 0.5 0 0.9 0.7 0.9 1.5 0 1.8 -1.3 2 -2 0.3 -0.4 -0.8 -0.6 -0.7 -0.6 0.4 -0.1 0.9 0.5 1.9 1.2 2.2 0.6 0.4 0.3 0.5 -0.8 0.3 -1.5 -0.3 -2 0.2 -2 1.9 0 1.2 0.3 2 0.7 1.8 0.4 -0.3 0.5 0.2 0.2 1 -0.4 1 -1.9 1.6 -4 1.6 -1.9 0 -3.4 0.4 -3.4 0.8 0 0.5 1.5 0.8 3.2 0.8 2.7 -0.1 3.3 0.3 3.3 1.9 0 1.1 0.8 2.3 1.8 2.7 1 0.4 1.5 1.2 1.2 1.8 -0.6 1 -3.8 1.1 -10.2 0.3z m3 -3 c-1.8 -0.2 -3.3 -0.8 -3.3 -1.4 0 -0.5 -5.2 -0.8 -12.2 -0.8 -12.3 0.2 -12.3 0.2 0.2 1.4 12.3 1.2 22.8 1.7 15.3 0.8z m-4.3 -3.8 c0.8 -0.2 -6.9 -0.2 -17.2 -0.2 -10.2 0.1 -18.4 -0.1 -18.1 -0.6 0.7 -1.2 -2.1 -3.4 -4.3 -3.2 -1.7 0.1 -2 -0.4 -1.9 -3.2 0.2 -2.3 -0.2 -3.3 -1.2 -3.3 -0.8 0 -1.1 -0.5 -0.7 -1.2 0.5 -0.8 0.1 -0.9 -1.2 -0.5 -1.8 0.7 -1.8 0.7 0 -0.8 2 -1.5 2 -1.5 0 -1.6 -1.8 0 -1.8 -0.1 0.1 -1 1.7 -0.8 1.5 -0.9 -1 -0.5 -2.8 0.4 -2.9 0.3 -1 -1.1 1.6 -1.2 1.7 -1.4 0.3 -1.1 -0.9 0.2 -1.7 -0.1 -1.7 -0.7 0 -0.5 0.8 -0.9 1.7 -0.7 1.3 0.2 1.4 0.1 0.3 -0.6 -0.7 -0.6 -1.3 -2.2 -1.3 -3.6 0 -2 -0.5 -2.6 -1.5 -2.2 -0.8 0.3 -2 0.6 -2.6 0.7 -0.7 0 -0.3 0.4 0.8 0.9 1.8 0.8 1.8 0.9 0.2 0.9 -1 0.1 -1.6 0.5 -1.3 1 0.4 0.5 0 1.2 -0.6 1.4 -0.7 0.3 -0.2 0.6 1.2 0.8 2.1 0.1 1.9 0.3 -1 0.9 -3.5 0.7 -3.5 0.7 -0.3 0.9 2.6 0.1 3.1 0.5 2.8 2.1 -0.3 1.3 0.2 2 1.3 2.1 1.2 0 1.3 0.2 0.3 0.6 -1.1 0.5 -1.1 0.7 0 1.4 1 0.6 1.1 0.9 0.2 0.9 -2.3 0 -1.4 3 1 3.1 2.1 0.1 2.1 0.1 -0.3 0.9 -2.5 0.8 -2.5 0.8 0 0.9 1.9 0.1 2.1 0.4 1.1 1 -1.1 0.7 -0.9 1 1 1.4 2.2 0.4 2.1 0.4 -0.5 0.6 -2.3 0.1 -2.6 0.4 -1.7 1.5 1 1.1 0.8 1.5 -0.6 1.9 -1 0.2 1 0.3 4.4 0.1 3.4 -0.2 6.5 0 6.7 0.5 0.5 0.7 33.4 0.4 36.6 -0.4z m-20.3 -4.2 c-0.9 -0.2 -1.5 -0.8 -1.3 -1.2 0.3 -0.4 -0.1 -0.8 -0.9 -0.8 -0.8 0 -1.2 0.4 -0.9 0.8 0.2 0.4 -0.4 1 -1.3 1.2 -1 0.3 0 0.5 2.2 0.5 2.2 0 3.2 -0.2 2.2 -0.5z m8.6 -0.6 c0.3 -0.8 -0.1 -1.4 -0.9 -1.4 -0.8 0 -1.4 0.4 -1.4 0.8 0 0.4 -1 1 -2.2 1.2 -1.7 0.3 -1.5 0.5 0.8 0.6 1.8 0 3.4 -0.5 3.7 -1.2z m12.7 -3.9 c0 -0.5 -0.8 -0.8 -1.7 -0.9 -1.5 0 -1.5 -0.2 0.2 -0.8 1.4 -0.6 0 -1 -4.6 -1.2 -4.3 -0.3 -6.6 0 -6.6 0.7 0 0.6 1.1 0.9 2.4 0.6 1.7 -0.3 2.2 -0.1 1.8 0.9 -0.4 1.1 0.6 1.4 4 1.4 2.5 0 4.5 -0.3 4.5 -0.7z m-29 -0.2 c0 -0.2 0.3 -1.2 0.6 -2 0.4 -1.2 0.2 -1.5 -0.9 -1 -1.1 0.4 -1.4 -0.2 -1.2 -2.6 0.1 -1.7 -0.3 -3.7 -1.1 -4.4 -0.7 -0.8 -1 -1.6 -0.7 -2 0.4 -0.3 -0.2 -0.6 -1.2 -0.6 -1.8 0 -1.8 -0.1 0.1 -1.6 1.8 -1.4 1.8 -1.5 -0.3 -0.4 -2.5 1.2 -3 2.6 -1 3.3 1.3 0.6 -1.3 1 -4.8 0.8 -1.4 0 -1.6 0.1 -0.5 0.6 0.8 0.3 2.1 1.2 2.8 2 1.1 1.1 0.9 1.3 -1.5 1.4 -2.1 0.1 -2.3 0.3 -0.8 0.7 2 0.5 2 0.5 0 1.3 -2 0.8 -2 0.8 0 0.8 1.5 0.1 1.7 0.3 0.6 1 -2.5 1.6 -0.1 3.1 5 3.1 2.7 0 4.9 -0.2 4.9 -0.4z m-24.9 -4.3 c-1.1 -0.5 -1.1 -0.7 0 -1.4 1.1 -0.7 1 -0.9 -0.3 -0.9 -1 0 -1.8 0.7 -1.8 1.5 0 0.8 0.8 1.5 1.8 1.4 1.2 0 1.3 -0.2 0.3 -0.6z m35.4 -6.5 c0.6 -0.4 -1.9 -0.7 -5.5 -0.6 -4.5 0.1 -5.3 0.3 -2.5 0.5 2.2 0.3 4.4 0.8 4.9 1.4 0.5 0.5 1.2 0.5 1.5 0.1 0.3 -0.4 1.1 -1 1.6 -1.4z m-22.8 -4.5 c-0.9 -0.3 -1.5 -0.8 -1.3 -1.2 0.3 -0.4 -0.1 -0.8 -0.9 -0.8 -0.8 0 -1.5 0.4 -1.5 0.8 0 0.4 -0.8 0.9 -1.7 1.1 -1 0.3 0.2 0.5 2.7 0.5 2.5 0 3.7 -0.2 2.7 -0.4z m17.6 0 c-1.3 -0.2 -3.5 -0.2 -5 0 -1.6 0.2 -0.5 0.4 2.2 0.4 2.8 0 4 -0.2 2.8 -0.4z m-4.2 -3.1 c1.3 -1.5 1.2 -1.6 -0.3 -0.3 -1.7 1.3 -2.1 1.1 -1.6 -0.6 0.3 -1.2 -4.8 -1.8 -12.4 -1.5 -7.7 0.4 -8.4 1.7 -1 1.7 2.9 0 4.6 0.4 4.5 1.1 -0.4 2 9.3 1.6 10.8 -0.4z m9 0.4 c0.5 0.3 0.9 0 0.9 -0.5 0 -0.6 -0.9 -1.1 -2 -1.1 -1.4 0 -1.8 0.5 -1.3 1.7 0.4 1.1 0.8 1.3 1.1 0.5 0.2 -0.7 0.8 -1 1.3 -0.6z m-43.6 -4.2 c1.3 -0.5 1.4 -0.8 0.3 -1.5 -1.7 -1.1 -3.1 -1.1 -2.4 0 0.4 0.5 0 1.2 -0.6 1.4 -0.9 0.4 -0.9 0.6 -0.1 0.6 0.6 0.1 1.9 -0.2 2.8 -0.5z m57.7 -1.1 c-0.6 -0.2 -1 -0.9 -0.6 -1.4 0.3 -0.5 -0.2 -0.9 -1.2 -0.9 -1.3 0 -1.4 0.3 -0.4 1.5 0.7 0.8 1.8 1.5 2.4 1.4 0.7 0 0.6 -0.2 -0.2 -0.6z m9.1 -1.2 c0.3 -1.1 -0.1 -2.2 -0.8 -2.4 -0.8 -0.4 -1 0.3 -0.7 1.9 0.5 2.9 0.8 3 1.5 0.5z m-70 -2.9 c-2.1 -2.2 -2.6 -2.1 -1.7 0.2 0.3 0.9 1.2 1.6 2 1.6 1.1 0 1 -0.4 -0.3 -1.8z m31.3 1.1 c-1 -1.1 -3.6 -1.2 -3.6 -0.2 0 0.5 1 0.9 2.2 0.9 1.2 0 1.8 -0.3 1.4 -0.7z"/>
  <path d="M13.1 43.4 c0.5 -0.6 1.2 -2.2 1.4 -3.4 0.5 -2.7 1.3 -3.6 2.2 -2.6 0.4 0.4 0.3 1 -0.2 1.4 -0.6 0.4 -1 1.3 -1.1 2 -0.3 3.4 -0.5 3.9 -1.9 3.9 -1 0 -1.2 -0.4 -0.4 -1.3z"/>
  <path d="M206.5 41 c-1.5 -0.6 -0.5 -0.9 3.7 -0.9 4.7 -0.1 5.6 -0.4 5.2 -1.6 -0.5 -1.1 -1 -1.2 -1.8 -0.6 -1.3 1.1 -5.6 0.4 -5.6 -0.9 0 -0.8 9.9 -23.2 10.6 -23.9 0.2 -0.2 1.5 0.4 2.9 1.3 2.5 1.6 2.5 1.6 -0.1 7.4 -5.7 12.8 -5.2 13.6 1.1 1.7 2 -3.8 3.8 -7.1 3.9 -7.3 0.3 -0.2 6.7 1.8 7.4 2.3 0.1 0.1 -0.5 1.8 -1.3 3.8 -0.8 2.1 -1.3 3.7 -1 3.7 0.3 0 1.3 -1.6 2.1 -3.5 1.4 -3.4 2.8 -4.4 3.8 -2.7 0.3 0.5 -2 4.9 -5 9.8 -5 8.2 -5.3 8.9 -3.4 9.2 1.2 0.2 1.9 0.9 1.7 1.5 -0.4 1.5 -21.2 2 -24.2 0.7z m18.4 -3.7 c1.4 -2.8 6.1 -18.8 5.2 -17.7 -0.5 0.5 -2.3 4.5 -4.1 8.9 -1.7 4.4 -3.4 8.6 -3.7 9.3 -0.8 1.9 1.5 1.4 2.6 -0.5z m-8.4 -11.1 c2.4 -5.1 4.1 -9.2 3.6 -9.2 -0.7 0 -6.8 12.4 -8.9 18 -1.4 3.9 1.3 -0.6 5.3 -8.8z"/>
  <path d="M261 37.5 c0 -0.8 0.6 -1.5 1.4 -1.5 0.8 0 2.5 -1.9 3.9 -4.2 3.4 -5.8 7.2 -9.3 13 -11.8 5.2 -2.3 8.8 -2.1 12 0.7 2.8 2.6 2.1 5.1 -1.9 7 -3.4 1.7 -3.6 1.7 -4.5 0 -1.7 -2.9 -5.8 -2 -10 2.2 -4.3 4.3 -4.9 6.1 -1.9 6.1 1.3 0 1.8 0.5 1.4 1.5 -0.5 1.1 -2.2 1.5 -7 1.5 -5 0 -6.4 -0.3 -6.4 -1.5z"/>
  <path d="M287 36.5 c0 -0.3 1.2 -1.7 2.8 -3.2 1.5 -1.6 3.3 -4.6 4.1 -6.8 2.7 -8.1 3.3 -8.5 11.6 -8.5 7.2 0 7.6 0.1 8.7 2.6 1.1 2.3 0.9 3.3 -1.4 7.5 -2.6 4.9 -2.6 4.9 -0.3 4.9 1.8 0 2.9 -1.4 5.8 -8 4.1 -9 2.1 -8 17.2 -8.5 9.5 -0.3 10.4 0 9.9 3.3 -0.2 1.5 -0.7 4.3 -1 6.2 -0.5 3.5 -0.5 3.5 2 1 1.7 -1.6 2.6 -3.8 2.8 -6.3 0.2 -3.3 0.6 -3.8 3.8 -4.7 1.9 -0.5 4.7 -1 6.2 -1 2.8 0 2.8 0 -0.7 4.6 -2.9 3.8 -4.7 9.4 -3 9.4 0.3 0 2.6 -3.1 5.1 -7 4 -5.9 5.1 -7 7.5 -7 1.6 0 2.9 0.3 2.9 0.6 0 0.3 -2.2 3.4 -5 6.9 -2.7 3.5 -5 6.5 -5 6.8 0 0.3 0.9 0.7 2 0.9 1.3 0.2 1.7 0.7 1.1 1.6 -0.5 0.9 -5.9 1.6 -18.2 2.2 -9.6 0.6 -23.9 1.4 -31.9 2 -15.8 1.1 -27 1.3 -27 0.5z m17.3 -3.2 c-0.9 -0.3 -0.6 -1.3 0.9 -3.3 2.5 -3.4 1.8 -6 -1.7 -6 -2.1 0 -2.9 0.8 -4.4 4.3 -1.8 4.2 -1.8 4.2 0.8 4.8 3.2 0.8 6.1 1 4.4 0.2z m33.9 -5.8 c0.3 -4.5 0.3 -4.5 -6.3 -4.5 -5.2 0 -6.8 0.4 -7.3 1.6 -1.1 3 -0.6 3.4 4.5 3.4 4.6 0 5 0.2 4.4 2 -0.5 1.6 -0.2 2 1.8 2 2.2 0 2.5 -0.5 2.9 -4.5z"/>
  <path d="M199.4 33.7 c-0.5 -1.4 6.5 -18.3 8.9 -21.4 0.5 -0.7 2 -1.3 3.3 -1.3 3.5 0 3 2.9 -2.4 14 -3.6 7.3 -5.2 9.6 -7 9.8 -1.3 0.2 -2.4 -0.3 -2.8 -1.1z m7.9 -10.3 c2.1 -4.7 3.6 -8.8 3.3 -9.1 -0.5 -0.5 -8.6 15.9 -8.6 17.3 0 0.2 0.3 0.4 0.8 0.4 0.4 0 2.4 -3.9 4.5 -8.6z"/>
  <path d="M1550 33.5 c0 -0.8 0.7 -1.5 1.5 -1.5 0.8 0 1.5 -0.8 1.5 -1.7 0.1 -1.7 0.1 -1.7 1.4 -0.1 0.8 1.1 3.4 2 6.9 2.4 3.2 0.4 5.7 1.1 5.7 1.5 0 1.4 -7.8 1 -8.3 -0.3 -0.4 -1 -0.6 -1 -0.6 0 -0.1 1.9 -8.1 1.6 -8.1 -0.3z"/>
  <path d="M193 31.8 c-1.4 -0.6 -3.4 -1.3 -4.4 -1.5 -1.1 -0.2 -2.1 -0.5 -2.3 -0.7 -0.2 -0.1 2.1 -5.5 5 -11.9 4.9 -10.9 6.8 -13.3 9 -11.1 0.8 0.9 -0.4 3.5 -1.4 2.9 -1.3 -0.8 -4.1 5.3 -3.4 7.5 0.4 1.2 0 2.2 -1.3 2.9 -2.6 1.4 -4.8 6.9 -3.4 8.3 0.8 0.8 2.4 -1.7 5.6 -8.7 2.5 -5.4 4.6 -10.2 4.6 -10.6 0 -1.2 3.1 -1.1 4.9 0 1.2 0.8 1.3 1.6 0.3 5 -0.7 2.2 -2 4.8 -3 5.7 -0.9 1 -1.7 2.2 -1.7 2.8 0 2.2 -4 10.6 -5 10.5 -0.5 0 -2.1 -0.5 -3.5 -1.1z m4 -4.9 c1.2 -2.3 1.9 -4.3 1.7 -4.6 -0.6 -0.5 -2.1 2.1 -3.7 6.1 -1.5 4 -0.3 3.1 2 -1.5z m5.6 -11.4 c2 -4.8 1.7 -5.7 -0.6 -1.5 -2 3.6 -2.4 5 -1.4 5 0.3 0 1.2 -1.6 2 -3.5z"/>
  <path d="M14.7 31.3 c-1.2 -1.2 -0.7 -3.3 0.8 -3.3 1.7 0 1.9 0.9 0.7 2.8 -0.5 0.7 -1.1 0.9 -1.5 0.5z"/>
  <path d="M1561 28.6 c-0.6 -1.9 -2 -4.7 -3.2 -6.1 -1.1 -1.4 -1.7 -2.9 -1.3 -3.3 0.3 -0.4 1.5 0.4 2.5 1.8 1.1 1.4 2 2 2 1.4 0 -0.6 -0.9 -2.3 -2.1 -3.7 -2 -2.7 -2 -2.7 0.5 -5.2 2.3 -2.3 17.1 -7.1 27.9 -9.1 3.7 -0.6 3.7 -0.6 3.7 2.7 0 1.9 0.4 4 0.9 4.8 0.5 0.8 0.3 3.1 -0.6 5.8 -1.2 3.5 -2 4.4 -3.3 4 -1.1 -0.3 -3.3 0.7 -5.3 2.4 -2.6 2.2 -5.2 3.1 -10.3 3.9 -3.8 0.5 -7.2 1 -7.6 1 -0.5 0 -0.8 0.7 -0.8 1.5 0 2.7 -1.8 1.6 -3 -1.9z"/>
  <path d="M393.5 30.1 c-0.3 -0.5 0.4 -1.2 1.5 -1.6 1.1 -0.4 1.7 -1.1 1.4 -1.7 -0.5 -0.7 -0.2 -0.8 0.7 -0.2 0.8 0.5 5.5 0.9 10.4 0.9 7.4 0.1 8.3 -0.1 5.3 -0.8 -2.1 -0.5 -3.8 -1.3 -3.8 -1.8 0 -0.5 -0.9 -0.9 -2 -0.9 -1.1 0 -2 -0.4 -2 -1 0 -0.5 -0.8 -1 -1.7 -1 -1 0 -2.6 -0.7 -3.5 -1.4 -2 -1.4 -2.5 -3.1 -0.7 -2 0.7 0.4 0.9 0 0.5 -1.4 -0.4 -1.2 -0.1 -3.2 0.5 -4.4 0.7 -1.3 1.4 -2.8 1.5 -3.5 0.1 -0.7 1 -3 2 -5.2 1.8 -4.1 1.8 -4.1 24.3 -4 13.6 0 21.8 0.4 20.6 0.9 -1.1 0.5 -1.5 0.9 -1 1 0.6 0.1 2.7 0.3 4.9 0.5 6.1 0.7 14.1 3.6 12.5 4.6 -0.9 0.6 -1 0.9 -0.2 0.9 0.6 0 1.5 -0.5 1.8 -1 0.4 -0.6 1.1 -0.8 1.6 -0.4 0.5 0.3 0.7 1 0.3 1.5 -0.4 0.6 0.9 0.8 3.4 0.5 2.7 -0.3 4.7 0.1 5.9 1.1 1 0.8 1.2 1.2 0.5 0.8 -2.3 -1.2 -6.8 -1.7 -5.7 -0.6 1.2 1.1 5.6 1.8 7 0.9 0.6 -0.3 2.1 -0.1 3.5 0.5 6.1 2.5 10.6 2.6 12.8 0.2 0.9 -1 1.1 -1.5 0.5 -1.1 -0.9 0.5 -1.1 0.2 -0.7 -0.8 0.3 -0.9 1 -1.3 1.5 -1 0.5 0.3 0.9 0 0.9 -0.6 0 -0.6 0.4 -0.9 1 -0.5 2.2 1.4 -2.4 7.8 -5 7 -2.1 -0.7 -6 2.7 -6 5.2 0 1 -0.5 2.4 -1.2 3.1 -0.9 0.9 -0.3 1.2 2.8 1.2 2.8 0 4.7 -0.6 5.9 -2 2.5 -2.7 5.9 -2.7 5 0 -0.5 1.6 -0.2 2 1.4 2 1.4 0 1.9 0.5 1.5 1.5 -0.7 1.8 -12.4 2.2 -12.4 0.4 0 -0.8 -0.4 -0.8 -1.5 0.1 -0.9 0.8 -14.2 1.8 -41.7 3.1 -46.3 2.1 -53.5 2.3 -54.3 1z m76.3 -17.8 c-1 -0.2 -2.6 -0.2 -3.5 0 -1 0.3 -0.2 0.5 1.7 0.5 1.9 0 2.7 -0.2 1.8 -0.5z m-0.5 -2 c-1.3 -0.2 -3.3 -0.2 -4.5 0 -1.3 0.2 -0.3 0.4 2.2 0.4 2.5 0 3.5 -0.2 2.3 -0.4z"/>
  <path d="M1406.5 28 c-45.1 -2 -123 -4.7 -162 -5.5 -37.7 -0.8 -46.5 -1.4 -46.5 -3.1 0 -0.8 0.6 -1.4 1.3 -1.4 0.7 0 2.8 -4 4.6 -9 3.4 -9 3.4 -9 31.3 -9 20.9 0 27.8 0.3 27.8 1.2 0 0.9 0.3 0.9 1.2 0 0.7 -0.7 3.3 -1.2 6 -1.2 4.8 0 4.8 0 4.3 3.3 -0.5 3.2 -0.5 3.2 0.7 0 1 -3.2 1.3 -3.3 6.4 -3.3 3 0 5.4 0.2 5.4 0.4 0 0.2 -0.7 2.2 -1.5 4.5 -0.8 2.2 -1 4.1 -0.6 4.1 0.5 0 1.4 -2 2.1 -4.5 1.3 -4.5 1.3 -4.5 7.9 -4.5 3.6 0 6.1 0.4 5.4 0.8 -1 0.7 -4.3 8.2 -4.3 10 0 0.9 3.7 -4.3 5.4 -7.6 1.6 -3 1.9 -3.2 7.3 -3.2 4.4 0 5.4 0.3 4.5 1.2 -1.6 1.6 -1.5 2.8 0.3 2.8 0.8 0 1.5 -0.9 1.5 -2 0 -1.7 0.7 -2 5.1 -2 4.5 0 5 0.2 4.4 1.8 -1.2 3.1 -3.5 12.5 -3.1 12.9 0.5 0.5 4.9 -11.6 4.9 -13.3 0 -1.1 2.4 -1.4 11.4 -1.4 6.2 0 11.3 0.3 11.3 0.6 0 0.3 -0.5 1.4 -1 2.5 -0.8 1.3 -0.7 1.9 0 1.9 0.6 0 1.6 -1.1 2.2 -2.5 1.1 -2.4 1.4 -2.5 10.9 -2.5 9.8 0 9.8 0 8.4 4.8 -0.7 2.6 -1.6 7 -1.9 9.7 -0.6 5 -0.6 5 1 2.2 0.8 -1.6 1.3 -3.5 1 -4.2 -0.2 -0.7 0.1 -1.8 0.8 -2.4 0.7 -0.6 2.3 -3.1 3.6 -5.6 2.3 -4.5 2.3 -4.5 61.7 -4.5 32.6 0 59.3 0.2 59.3 0.4 0 0.3 -3.9 2.6 -8.7 5.2 -15.2 8 -18.8 10.9 -21.1 16.4 -2.1 5 -2.1 5 -0.1 5 1.2 0 1.9 0.5 1.7 1.3 -0.7 1.8 -14.1 1.7 -60.3 -0.3z m-14.5 -7 c-1.3 -0.9 -1.3 -1 0 -1 1.3 0 1.3 -0.1 0 -1 -0.9 -0.6 -1.7 -0.5 -2.2 0.3 -1.2 1.8 -1 2.5 1 2.9 2.3 0.6 3 -0.1 1.2 -1.2z m-59.1 -3.5 c1.2 -2.5 2.1 -5.2 2.1 -6 0 -3.1 -1.6 -1.4 -3.5 3.8 -1.1 2.8 -2.1 5.5 -2.3 6 -0.2 0.4 0.1 0.7 0.6 0.7 0.5 0 1.9 -2 3.1 -4.5z m47.6 0.3 c0.4 -1.8 0.8 -4.2 0.9 -5.3 0.1 -1.1 0.5 -3.1 0.9 -4.5 0.6 -1.8 0.2 -1.5 -1.2 1 -1.2 2.1 -1.6 3.9 -1 4.4 0.5 0.6 -0.1 2.3 -1.7 4.3 -2.3 3 -2.4 3.3 -0.6 3.3 1.4 0 2.2 -1 2.7 -3.2z m-31.5 -10.3 c0 -0.3 -1.1 -0.5 -2.5 -0.5 -2.2 0 -2.5 0.4 -2.5 3.4 0 1.9 -0.3 4.3 -0.6 5.3 -0.4 1 0.8 -0.4 2.5 -3 1.7 -2.6 3.1 -5 3.1 -5.2z m9.6 5 c0.6 -1.9 0.7 -3.5 0.3 -3.5 -0.5 0 -0.9 0.6 -0.9 1.4 0 0.7 -0.7 1.9 -1.5 2.6 -1.8 1.5 -1.9 3 -0.2 3 0.6 0 1.7 -1.6 2.3 -3.5z m-46.8 0.4 c0.4 -2.1 -3.5 -3.2 -4.2 -1.2 -1 2.5 -0.7 3 1.6 2.9 1.3 0 2.4 -0.8 2.6 -1.7z m48.7 -9.4 c0.7 -3 0.7 -3 -0.9 -0.1 -1.8 3.1 -2.2 5.6 -0.7 4.1 0.5 -0.6 1.3 -2.3 1.6 -4z"/>
  <path d="M1480 29 c0 -1.2 5.7 -1.2 8.5 0 1.5 0.6 0.6 0.9 -3.2 0.9 -2.9 0.1 -5.3 -0.3 -5.3 -0.9z"/>
  <path d="M182.3 28.3 c-2.3 -0.9 -1.4 -3.8 3.7 -11.8 3.6 -5.7 4.9 -8.6 4.5 -10.2 -0.4 -1.8 -0.1 -2.3 1.5 -2.3 3.7 0 3.2 2.5 -2.6 11.9 -4.3 6.9 -5.4 9.5 -4.4 10.1 0.7 0.4 0.9 1.3 0.6 1.9 -0.8 1.2 -1.3 1.2 -3.3 0.4z"/>
  <path d="M1486.5 24.9 c2.2 -1.1 6.1 -4.1 8.7 -6.6 2.6 -2.6 5 -4.4 5.3 -4.1 0.9 0.9 -8.8 10.6 -11.8 11.7 -4.8 1.9 -6.4 1.1 -2.2 -1z"/>
  <path d="M509 24.8 c0 -0.7 1.1 -1.8 2.5 -2.5 1.4 -0.6 2.5 -0.7 2.5 -0.2 0 2.1 3.8 0.8 4.4 -1.5 0.3 -1.3 0.9 -3.1 1.2 -4 0.5 -1.4 0.2 -1.5 -2 -0.6 -3 1.1 -3.3 0.4 -1 -2.8 1.4 -2.1 1.4 -2.2 -0.5 -2.2 -1.1 0 -2.3 0.5 -2.6 1 -1 1.7 -2.5 1.1 -2.5 -0.9 0 -2.1 2.2 -3.3 4.5 -2.5 0.8 0.4 1.5 0.1 1.5 -0.5 0 -1.5 2.9 -1.4 4.5 0.2 0.8 0.9 1 1.9 0.4 2.8 -0.5 0.8 -0.9 1.9 -0.8 2.4 0 2.3 2.8 -4.2 2.9 -6.6 0 -2 -0.6 -2.8 -2.4 -3.3 -1.4 -0.3 -3.1 -0.3 -4 0 -2 0.8 -3.6 -0.3 -3 -2.1 0.7 -1.7 24 -2 25 -0.3 1.1 1.7 1.3 5.9 0.3 5.2 -0.5 -0.3 -1.8 0.1 -3 0.9 -1.1 0.8 -2.9 1.3 -3.9 1 -1.7 -0.4 -1.8 -0.1 -1.4 2.9 0.4 2.5 0 4.4 -1.5 6.9 -2.6 4.2 -2.6 4.9 -0.1 4.9 1.3 0 1.8 0.5 1.4 1.5 -0.8 2 -22.4 2.2 -22.4 0.3z m17.8 -6.3 c1.2 -2.6 1.7 -4.7 1.2 -5 -1 -0.6 -6 4.1 -6 5.6 0 0.4 -0.3 1.4 -0.6 2.3 -0.4 1.1 0 1.6 1.3 1.6 1.3 0 2.6 -1.5 4.1 -4.5z m2.4 -9.3 c0.3 0.7 0.7 0.3 1 -0.8 0.3 -1.3 0 -2.1 -0.8 -2.1 -0.8 0 -1.4 0.4 -1.4 0.9 0 0.4 -0.4 0.8 -1 0.8 -0.5 0 -0.7 -0.8 -0.4 -1.7 0.5 -1.5 0.4 -1.6 -0.5 -0.3 -1.8 2.6 -1.4 4.2 0.8 3 1.4 -0.7 2.1 -0.6 2.3 0.2z"/>
  <path d="M540 23.6 c0 -0.7 0.9 -1.6 1.9 -1.9 1.4 -0.3 1.8 -1.1 1.4 -2.5 -0.4 -1.5 0.2 -2.4 2.4 -3.5 2.9 -1.5 5.8 -1.2 4.8 0.4 -0.8 1.2 2.5 5.9 4.1 5.9 0.8 0 1.4 0.7 1.4 1.5 0 1.2 -1.6 1.5 -8 1.5 -6.1 0 -8 -0.3 -8 -1.4z"/>
  <path d="M577 22.6 c0 -1.7 3.7 -2.7 6.8 -1.9 4.1 1 2.6 3.3 -2.3 3.3 -3.2 0 -4.5 -0.4 -4.5 -1.4z"/>
  <path d="M604 21.5 c0 -0.8 0.6 -1.5 1.4 -1.5 0.8 0 2.1 -0.8 2.8 -1.9 0.9 -1.2 1.9 -1.6 3.3 -1.1 1 0.4 3.1 0.1 4.5 -0.7 1.9 -1 2.6 -1 2.9 -0.1 0.6 1.8 2.8 3.8 4 3.8 0.6 0 1.1 0.7 1.1 1.5 0 1.2 -1.8 1.5 -10 1.5 -8.2 0 -10 -0.3 -10 -1.5z"/>
  <path d="M596 21 c3.6 -1.1 5 -1.1 5 0 0 0.6 -1.7 1 -3.7 0.9 -3.4 -0.1 -3.5 -0.2 -1.3 -0.9z"/>
  <path d="M642 20.6 c0 -1.6 2.5 -2.4 5.3 -1.8 3.2 0.8 1.9 3.2 -1.8 3.2 -2.4 0 -3.5 -0.5 -3.5 -1.4z"/>
  <path d="M1007 17.8 c0 -0.7 1.1 -1.8 2.5 -2.5 1.4 -0.6 2.3 -0.8 2 -0.4 -0.2 0.4 0.2 0.8 1 0.8 1.3 0 1.3 -0.4 0 -2.4 -0.9 -1.3 -1.7 -4.4 -1.8 -6.8 -0.1 -2.5 -0.5 -4.5 -1 -4.5 -0.4 0 -0.6 -0.4 -0.3 -0.9 0.3 -0.5 4.5 -0.9 9.3 -1 6.9 -0.1 8.5 0.1 7.5 1.1 -1.5 1.5 -1.6 8.4 0 9.4 0.7 0.5 0.8 0.3 0.3 -0.6 -0.5 -0.9 -0.4 -1.1 0.4 -0.6 1.5 1 0.4 2.6 -1.7 2.6 -0.9 0 -2.6 0.7 -3.6 1.5 -1 0.8 -2.3 1.2 -2.9 0.8 -0.6 -0.3 -0.7 -0.1 -0.3 0.5 0.4 0.7 2.1 1.2 3.9 1.2 2.9 0 3 0.1 1.1 1.5 -2.5 1.9 -16.4 2.1 -16.4 0.3z"/>
  <path d="M757.8 17.3 c1.2 -0.2 3 -0.2 4 0 0.9 0.3 -0.1 0.5 -2.3 0.4 -2.2 0 -3 -0.2 -1.7 -0.4z"/>
  <path d="M953 17 c0 -0.5 2 -1 4.5 -1 2.5 0 4.5 0.5 4.5 1 0 0.6 -2 1 -4.5 1 -2.5 0 -4.5 -0.4 -4.5 -1z"/>
  <path d="M900.3 16.3 c1.5 -0.2 3.7 -0.2 5 0 1.2 0.2 0 0.4 -2.8 0.4 -2.7 0 -3.8 -0.2 -2.2 -0.4z"/>
  <path d="M758.6 14.1 c-0.4 -0.6 -1.3 -0.8 -2.1 -0.4 -0.8 0.3 -1.5 0 -1.5 -0.6 0 -0.6 0.6 -1.1 1.3 -1.1 1.8 0 4.3 1.8 3.5 2.5 -0.3 0.4 -0.9 0.2 -1.2 -0.4z"/>
  <path d="M745.4 13.1 c0.4 -0.5 0 -1.2 -0.6 -1.5 -1.1 -0.5 -1.1 -0.7 0 -1.2 0.6 -0.3 0.9 -1.1 0.5 -1.7 -0.4 -0.7 0.1 -0.6 1 0.2 2.1 1.7 2.2 5.1 0.1 5.1 -0.8 0 -1.3 -0.4 -1 -0.9z"/>
  <path d="M1756.3 13.3 c-1.5 -0.6 -1.7 -4.3 -0.3 -4.3 0.6 0 1 -1.5 1.1 -3.2 0 -3 0.1 -3.1 0.9 -1 1.3 3.1 1.7 2.8 1.2 -0.8 -0.3 -1.8 0 -3 0.7 -3 0.6 0 1.1 1.6 1.1 3.5 0 2.3 -0.5 3.5 -1.4 3.5 -1 0 -1.2 0.7 -0.8 2.2 0.4 1.7 0.2 2 -1.3 1.4 -1.5 -0.5 -1.6 -0.4 -0.5 0.9 1.3 1.6 1.3 1.6 -0.7 0.8z"/>
  <path d="M703.6 9.5 c-1 -0.7 -1.5 -1.8 -1.1 -2.4 0.3 -0.6 0.3 -1.1 -0.2 -1.2 -0.4 0 -1.7 -0.2 -2.8 -0.4 -1 -0.2 -2.6 0.2 -3.4 0.8 -1.2 0.9 -1.3 0.9 -0.7 0 0.4 -0.8 0.2 -1.3 -0.6 -1.3 -1 0 -0.9 -0.3 0.2 -1.1 1.2 -0.8 0.9 -0.9 -1.2 -0.5 -1.4 0.3 -2.8 0.1 -3 -0.4 -0.2 -0.6 -3.8 -1.2 -8.1 -1.3 -12.5 -0.3 -8.8 -1.7 4.7 -1.7 12.3 0 12.3 0 12 2.8 -0.2 1.5 -0.2 2.2 0.1 1.6 0.3 -0.6 1.8 -0.9 3.4 -0.6 2 0.3 2.8 0 2.8 -1.2 0 -1.1 -0.7 -1.5 -2.4 -1.2 -1.2 0.3 -2.3 0 -2.3 -0.5 0 -1.2 4.7 -1.2 5.5 0.1 0.3 0.6 1.1 1 1.6 1 0.6 0 0.7 -0.6 0.3 -1.2 -0.5 -0.8 0 -0.7 1.1 0.2 1.3 1 1.6 1.1 1.1 0.2 -1.5 -2.4 12.2 -0.7 19.4 2.5 0.8 0.3 1.7 0.7 2 0.8 0.3 0.1 1.3 0.5 2.3 0.8 0.9 0.4 2.4 0.9 3.2 1.2 0.8 0.2 1.5 1.1 1.5 1.9 0 1.8 -2 3.2 -2.9 2 -0.3 -0.5 -1.9 -1.1 -3.6 -1.3 -1.6 -0.1 -4 -1.1 -5.3 -2.2 -1.4 -1 -2.8 -1.6 -3.3 -1.3 -0.5 0.3 -0.9 0.1 -0.9 -0.5 0 -0.7 -0.8 -0.7 -2.6 0 -2 0.7 -3.1 0.6 -4.3 -0.4 -1.8 -1.5 -5.1 -1.2 -5.1 0.5 0 0.6 -1 0.3 -2.2 -0.8 -1.3 -1.2 -1.8 -1.3 -1.3 -0.4 1.3 2.2 1.5 3.9 0.4 4.6 -0.5 0.3 -0.8 0 -0.7 -0.7 0.2 -0.7 -0.6 -1.4 -1.7 -1.6 -1.2 -0.3 -1.6 -0.1 -0.9 0.4 0.8 0.6 1.7 4.5 1 4.3 -0.1 0 -0.9 -0.7 -2 -1.5z"/>
  <path d="M697.5 9 c2.8 -1.2 3.7 -1.2 3 0 -0.3 0.6 -1.6 1 -2.8 0.9 -2.1 0 -2.1 -0.1 -0.2 -0.9z"/>
  <path d="M916 8.9 c0 -2.8 1.3 -5.9 2.1 -5.3 1.4 0.8 1 4 -0.6 5.4 -1.2 1 -1.5 1 -1.5 -0.1z"/>
  <path d="M159.5 8 c-0.6 -1 2 -8 3 -8 1 0 0.1 3.4 -1.2 4.8 -0.7 0.7 -1 1.9 -0.7 2.7 0.7 1.7 -0.1 2 -1.1 0.5z"/>
  <path d="M688.4 8.1 c0.5 -0.8 5.6 -0.3 5.6 0.5 0 0.2 -1.4 0.4 -3.1 0.4 -1.6 0 -2.8 -0.4 -2.5 -0.9z"/>
  <path d="M1029.3 8.3 c-0.8 -0.3 -0.9 -1.2 -0.3 -2.9 0.5 -1.3 0.6 -2.4 0.2 -2.4 -1.1 0 2.2 -2 3.4 -2 0.9 0 1.2 3.4 0.6 6.1 -0.3 1 -2.5 1.7 -3.9 1.2z"/>
  <path d="M964.4 4.9 c0.3 -1.7 0.6 -3.5 0.6 -4 0 -0.5 0.8 -0.9 1.9 -0.9 2 0 3.6 3.6 2 4.6 -0.5 0.3 -0.7 0.9 -0.4 1.4 0.3 0.4 -0.2 1.1 -1.1 1.4 -3 1.2 -3.7 0.7 -3 -2.5z"/>
  <path d="M390.3 3.5 c0 -0.8 0.7 -1.5 1.6 -1.5 1.4 0 1.4 -0.2 0.1 -1 -1.3 -0.8 -1.2 -1 0.3 -1 2.1 0 2.2 1.4 0.1 3.4 -1.9 2 -2.1 2 -2.1 0.1z"/>
  <path d="M567 2.7 c0 -1 -0.4 -1.5 -1 -1.2 -0.5 0.3 -1 0.1 -1 -0.4 0 -0.6 0.9 -1.1 2 -1.1 2.2 0 2.5 0.7 1 3 -0.8 1.3 -1 1.2 -1 -0.3z"/>
  <path d="M861.8 2.3 c-3 -0.8 -2 -2 1.2 -1.5 1.7 0.2 3 0.8 3 1.3 0 0.9 -1.3 1 -4.2 0.2z"/>
  <path d="M949.3 1.5 c0 -1.7 7.2 -2.2 8.2 -0.5 0.3 0.6 0.3 1 -0.2 1.1 -0.4 0 -2 0.2 -3.6 0.4 -1.9 0.3 -2.5 0 -2 -0.8 0.5 -0.9 0.2 -0.8 -0.8 0 -1.3 1 -1.6 1 -1.6 -0.2z"/>
  <path d="M661 0.8 c0 -0.5 2.5 -0.8 5.5 -0.8 3 0 5.5 0.3 5.5 0.8 0 0.4 -2.5 0.7 -5.5 0.7 -3 0 -5.5 -0.3 -5.5 -0.7z"/>
  <path d="M1635 1 c-1.2 -0.8 -0.9 -1 1.3 -1 1.5 0 2.7 0.5 2.7 1 0 1.3 -2 1.3 -4 0z"/>
 </g>
 <g fill="#11193c">
  <path d="M911.6 58.3 c-0.3 -0.3 -29.9 -1.4 -51.1 -1.8 -11.5 -0.3 -24.1 -0.7 -28 -1 -3.8 -0.3 -11.7 -0.8 -17.5 -1 -5.8 -0.3 -13 -0.8 -16 -1.1 -3 -0.3 -10.9 -0.7 -17.5 -1 -16.5 -0.7 -16.5 -0.7 -16.5 -1.4 0 -0.3 -4.3 -0.6 -9.5 -0.8 -5.3 -0.2 -10.5 -0.5 -11.5 -0.8 -1.1 -0.2 -2.9 -0.6 -4 -0.9 -1.2 -0.2 -6.3 -0.5 -11.5 -0.6 -5.2 -0.1 -9.5 -0.4 -9.5 -0.8 0 -0.3 -2.9 -0.8 -6.5 -0.9 -3.5 -0.2 -7.5 -0.5 -8.7 -0.8 -1.3 -0.3 -4.4 -0.8 -7 -1 -2.7 -0.2 -7.2 -0.6 -10 -0.9 -4.4 -0.5 -11.5 -1.1 -18.5 -1.7 -0.7 -0.1 -1.3 -0.4 -1.3 -0.8 0 -0.4 -2.9 -0.8 -6.5 -0.9 -3.5 -0.1 -7.4 -0.4 -8.5 -0.7 -1.1 -0.2 -2.9 -0.6 -4.1 -0.9 -1.1 -0.2 -4 -0.5 -6.5 -0.6 -2.4 -0.2 -4.4 -0.6 -4.4 -0.9 0 -0.4 -2.4 -0.8 -5.2 -0.8 -2.9 -0.1 -6.4 -0.4 -7.8 -0.8 -1.4 -0.3 -5 -1 -8 -1.4 -3 -0.4 -6.5 -1 -7.8 -1.3 -1.2 -0.3 -4.7 -0.7 -7.7 -0.8 -3 -0.1 -5.5 -0.6 -5.5 -1.1 0 -0.4 -2.2 -0.8 -5 -0.8 -2.7 0 -5 -0.4 -5 -0.8 0 -0.5 -2.1 -0.9 -4.7 -1 -7 -0.3 -10.3 -1.2 -10.3 -2.7 0 -1.8 8.5 -2.3 61.5 -3.5 113.9 -2.7 170.3 -3.3 308.5 -3.3 137.8 0 204.9 0.7 310.5 3.3 55.3 1.3 64.5 1.9 64.5 3.6 0 0.8 -0.6 1.4 -1.2 1.5 -0.7 0 -2.2 0.2 -3.3 0.5 -1.1 0.2 -4 0.6 -6.5 0.8 -9.2 0.9 -15.5 1.9 -16 2.5 -0.7 0.8 -2 1 -8.8 1.4 -3.1 0.2 -6.2 0.6 -6.7 0.9 -0.6 0.3 -3 0.7 -5.5 0.9 -2.5 0.1 -5.2 0.6 -6.1 1 -0.8 0.4 -4.6 0.9 -8.2 1 -3.7 0.1 -6.7 0.5 -6.7 0.9 0 0.4 -2.6 0.8 -5.7 0.9 -6.9 0.3 -7.6 0.4 -8.4 1.4 -0.3 0.4 -4 0.8 -8.2 0.9 -4.2 0.1 -7.7 0.4 -7.7 0.8 0 0.4 -3 0.8 -6.7 1 -3.8 0.1 -7.4 0.3 -8 0.3 -0.7 0 -1.3 0.3 -1.3 0.7 0 0.8 -0.2 0.8 -10 1.1 -4.1 0.1 -8.2 0.5 -9.1 1 -0.8 0.4 -5 0.9 -9.2 1.1 -4.2 0.1 -7.7 0.5 -7.7 0.8 0 0.7 -1.4 0.8 -14.2 1.1 -5.4 0.2 -9.8 0.5 -9.8 0.9 0 0.3 -3.8 0.7 -8.5 0.9 -4.7 0.1 -9.6 0.5 -10.8 0.7 -4 1 -9.1 1.4 -20.2 1.9 -6 0.2 -13.9 0.6 -17.5 0.9 -3.6 0.3 -10.8 0.8 -16 1.1 -5.2 0.2 -11.1 0.7 -13 0.9 -1.9 0.3 -14.9 0.6 -28.7 0.8 -13.9 0.1 -25.3 0.5 -25.3 0.8 0 0.7 -87.6 2 -88.4 1.3z"/>
  <path d="M517 27 c0 -1.7 0.7 -2 4 -2 4.5 0 5.7 2.3 1.8 3.4 -4.2 1.1 -5.8 0.7 -5.8 -1.4z"/>
  <path d="M1359.8 28.3 c-3.6 -0.9 -2 -3.3 2.2 -3.3 3.3 0 4 0.3 4 2 0 2 -2 2.4 -6.2 1.3z"/>
  <path d="M547 26 c0 -1.7 0.7 -2 4.5 -2 4.9 0 6.4 2.3 2.3 3.4 -4.5 1.2 -6.8 0.7 -6.8 -1.4z"/>
  <path d="M1328.8 27.3 c-1 -0.2 -1.8 -1.1 -1.8 -1.9 0 -1 1.3 -1.4 4.5 -1.4 3.8 0 4.5 0.3 4.5 2 0 1.5 -0.6 2 -2.7 1.9 -1.6 -0.1 -3.6 -0.3 -4.5 -0.6z"/>
 </g>
 <g fill="#351222">
  <path d="M1891 65.5 c0 -1.9 -0.2 -2 -33 -5.5 -58.4 -6.2 -105.4 -10.2 -177.5 -15 -37.7 -2.6 -37.5 -2.5 -37.5 -5 0 -2.5 -2.2 -2.5 36 0.5 59.4 4.7 156.6 14.2 196 19.1 14.6 1.8 16 1.8 16 -0.1 0 -0.8 0.7 -1.5 1.5 -1.5 1.1 0 1.5 1.2 1.5 4.5 0 3.3 -0.4 4.5 -1.5 4.5 -0.8 0 -1.5 -0.7 -1.5 -1.5z"/>
  <path d="M0 61.7 c0 -1.5 -0.5 -1.4 44.5 -6.2 56.5 -6.1 146.1 -14.2 186.8 -17 9.3 -0.7 9.7 -0.6 9.7 1.3 0 2.6 0.4 2.5 -39 5.2 -79 5.4 -177.9 14.1 -198.7 17.6 -2.4 0.3 -3.3 0.1 -3.3 -0.9z"/>
  <path d="M243 40 c0 -1.4 0.9 -2.1 3.3 -2.5 5 -1 9.1 -0.2 9.5 1.6 0.4 1.9 -2.4 2.9 -8.5 2.9 -3.6 0 -4.3 -0.3 -4.3 -2z"/>
  <path d="M1628.8 41.3 c-2.7 -0.7 -2.2 -3.2 0.8 -3.9 2.6 -0.7 10.1 0 11.1 1 0.3 0.3 0.3 1.2 0 2.1 -0.5 1.1 -2 1.5 -5.4 1.4 -2.6 -0.1 -5.6 -0.3 -6.5 -0.6z"/>
  <path d="M258.3 40.4 c-0.7 -0.3 -1.3 -1.2 -1.3 -1.9 0 -1.6 4.3 -2.6 11 -2.5 2.5 0 7.9 -0.2 12 -0.6 4.1 -0.3 10.9 -0.8 15 -1 12 -0.7 24.9 -1.5 33 -1.9 4.1 -0.2 9.9 -0.6 12.8 -1 4.7 -0.7 5.2 -0.6 5.2 1.2 0 1.5 -1.2 2.1 -5.7 3.1 -3.2 0.7 -8.5 1.2 -11.8 1.2 -3.3 0 -10 0.2 -15 0.5 -18.1 1.1 -26.2 1.6 -34 2 -4.4 0.3 -10.7 0.7 -14 0.9 -3.3 0.3 -6.6 0.3 -7.2 0z"/>
  <path d="M1613.6 40.3 c-0.3 -0.4 -4.6 -0.8 -9.4 -1 -4.8 -0.1 -12.5 -0.5 -17.2 -0.8 -16.6 -0.9 -26.6 -1.5 -34.5 -1.8 -13.1 -0.6 -17.5 -1.6 -17.5 -4 0 -1.8 0.4 -1.9 5.3 -1.2 2.8 0.4 8.8 0.9 13.2 1.1 16.2 0.8 36 1.9 49 2.8 4.4 0.3 10 0.6 12.5 0.6 6.5 -0.1 11 0.9 11 2.4 0 0.8 -0.7 1.7 -1.6 2 -2.1 0.8 -9.9 0.8 -10.8 -0.1z"/>
  <path d="M349 34.2 c0 -1.3 1.4 -2.1 5.3 -3 7.8 -1.8 11.7 -1.6 11.7 0.6 0 1.3 -1.4 2.1 -5.3 3 -7.8 1.8 -11.7 1.6 -11.7 -0.6z"/>
  <path d="M1521.3 34.7 c-3.2 -0.8 -4.3 -1.6 -4.3 -3 0 -1.7 0.5 -1.9 4.8 -1.3 11.2 1.5 12.2 1.8 12.2 3.7 0 1.6 -0.7 1.9 -4.2 1.8 -2.4 -0.1 -6.2 -0.7 -8.5 -1.2z"/>
  <path d="M369 33.2 c0 -2.2 5.6 -4.2 11.4 -4.2 2.8 0 3.6 0.4 3.6 1.8 0 2.2 -5.6 4.2 -11.4 4.2 -2.8 0 -3.6 -0.4 -3.6 -1.8z"/>
  <path d="M1502.3 33.8 c-4.8 -1.6 -4.6 -4.8 0.3 -4.8 5.8 0 11.4 2 11.4 4.2 0 1.5 -0.8 1.8 -4.2 1.7 -2.4 -0.1 -5.8 -0.6 -7.5 -1.1z"/>
  <path d="M389 32.2 c0 -2.2 5.6 -4.2 11.4 -4.2 2.8 0 3.6 0.4 3.6 1.8 0 2.2 -5.6 4.2 -11.4 4.2 -2.8 0 -3.6 -0.4 -3.6 -1.8z"/>
  <path d="M1482.3 32.8 c-4.4 -1.4 -4.6 -4.8 -0.3 -4.8 5.5 0 12 2.3 12 4.2 0 1.5 -0.8 1.8 -4.2 1.7 -2.4 -0.1 -5.8 -0.6 -7.5 -1.1z"/>
  <path d="M411 31.1 c0 -2.2 4.5 -4.1 9.6 -4.1 2.9 0 3.4 0.3 3.4 2.4 0 2.7 -2.1 3.6 -8.7 3.6 -3.6 0 -4.3 -0.3 -4.3 -1.9z"/>
  <path d="M1460.8 32.3 c-1.9 -0.5 -2.2 -1.2 -1.2 -3.7 1.2 -3.2 12.4 -1 12.4 2.5 0 1.6 -0.7 1.9 -4.7 1.8 -2.7 -0.1 -5.6 -0.3 -6.5 -0.6z"/>
  <path d="M434.5 29.9 c-0.9 -2.7 -0.4 -3 4.9 -3.6 3.3 -0.4 4.9 -0.1 6 1 3.1 3.1 0.9 4.7 -6.6 4.7 -2.8 0 -3.8 -0.5 -4.3 -2.1z"/>
  <path d="M1437.8 31.3 c-2.2 -0.5 -2.4 -3.3 -0.3 -3.3 0.8 0 1.5 -0.5 1.5 -1.1 0 -0.8 1.5 -1 4.5 -0.6 5.4 0.6 5.9 0.9 5 3.6 -0.5 1.7 -1.4 2.1 -4.8 2 -2.3 -0.1 -5 -0.3 -5.9 -0.6z"/>
  <path d="M459 30 c0 -0.5 -0.7 -1 -1.5 -1 -2.4 0 -1.8 -2.7 0.8 -3.4 3.5 -0.9 9.7 -0.7 9.7 0.4 0 0.6 0.7 1 1.5 1 2.4 0 1.8 2.7 -0.7 3.4 -3.6 0.9 -9.8 0.7 -9.8 -0.4z"/>
  <path d="M1413.8 30.3 c-2.5 -0.6 -2.3 -3.3 0.2 -3.3 1.1 0 2 -0.4 2 -1 0 -1.1 5.2 -1.3 8.8 -0.4 2.5 0.7 3.1 3.4 0.7 3.4 -0.8 0 -1.5 0.5 -1.5 1 0 1 -6.9 1.2 -10.2 0.3z"/>
  <path d="M485 29 c0 -0.5 -0.9 -1 -2 -1 -2.7 0 -2.5 -2.6 0.3 -3.4 3.5 -0.9 7.7 -0.7 7.7 0.4 0 0.6 1.4 1 3 1 3.6 0 4.1 2.5 0.8 3.4 -3.6 0.9 -9.8 0.7 -9.8 -0.4z"/>
  <path d="M1387.8 29.3 c-3.3 -0.8 -2 -3.3 1.7 -3.3 1.9 0 3.5 -0.4 3.5 -1 0 -1.1 4.2 -1.3 7.8 -0.4 3 0.9 2.8 3.4 -0.3 3.4 -1.4 0 -2.5 0.5 -2.5 1 0 1 -6.9 1.2 -10.2 0.3z"/>
  <path d="M513 28 c0 -0.5 -1.8 -1 -4 -1 -4.5 0 -5.7 -2.3 -1.7 -3.4 3.5 -0.9 9.7 -0.7 9.7 0.4 0 0.6 1.4 1 3 1 3.6 0 4.1 2.5 0.8 3.4 -3.6 0.9 -7.8 0.7 -7.8 -0.4z"/>
  <path d="M1361.8 28.3 c-3.3 -0.8 -2 -3.3 1.7 -3.3 1.9 0 3.5 -0.4 3.5 -1 0 -1.1 5.2 -1.3 8.8 -0.4 3.9 1.1 2.7 3.4 -1.8 3.4 -2.2 0 -4 0.5 -4 1 0 1 -4.9 1.2 -8.2 0.3z"/>
  <path d="M543 27 c0 -0.5 -2 -1 -4.5 -1 -4.9 0 -6.4 -2.3 -2.2 -3.4 3.5 -0.9 8.7 -0.7 8.7 0.4 0 0.6 1.8 1 4 1 4.5 0 5.7 2.3 1.8 3.4 -3.6 0.9 -7.8 0.7 -7.8 -0.4z"/>
  <path d="M1331.8 27.3 c-1 -0.2 -1.8 -1.1 -1.8 -1.9 0 -1 1.3 -1.4 5 -1.4 2.8 0 5 -0.4 5 -1 0 -1.1 4.2 -1.3 7.8 -0.4 1.2 0.4 2.2 1.3 2.2 2 0 1 -1.4 1.4 -5 1.4 -2.7 0 -5 0.5 -5 1 0 1 -4.9 1.2 -8.2 0.3z"/>
  <path d="M575 26 c0 -0.6 -2.7 -1 -6 -1 -4.4 0 -6 -0.4 -6 -1.4 0 -0.7 1 -1.6 2.3 -2 3.5 -0.9 9.7 -0.7 9.7 0.4 0 0.6 2.3 1 5 1 3.6 0 5 0.4 5 1.4 0 0.7 -1 1.6 -2.2 2 -3.6 0.9 -7.8 0.7 -7.8 -0.4z"/>
  <path d="M1298.8 26.3 c-1 -0.2 -1.8 -1.1 -1.8 -1.9 0 -1 1.4 -1.4 5.5 -1.4 4.8 0 5.5 0.2 5.5 2 0 1.7 -0.6 2 -3.7 1.9 -2.1 -0.1 -4.6 -0.3 -5.5 -0.6z"/>
  <path d="M611 24 c0 -1.7 0.7 -2 4.5 -2 4.9 0 6.4 2.3 2.3 3.4 -4.5 1.2 -6.8 0.7 -6.8 -1.4z"/>
  <path d="M1264.8 25.3 c-1 -0.2 -1.8 -1.1 -1.8 -1.9 0 -1 1.3 -1.4 4.5 -1.4 3.8 0 4.5 0.3 4.5 2 0 1.5 -0.6 2 -2.7 1.9 -1.6 -0.1 -3.6 -0.3 -4.5 -0.6z"/>
  <path d="M652 23 c0 -1.7 0.7 -2 4 -2 4.5 0 5.7 2.3 1.8 3.4 -4.2 1.1 -5.8 0.7 -5.8 -1.4z"/>
  <path d="M1224.8 24.3 c-3.6 -0.9 -2 -3.3 2.2 -3.3 3.3 0 4 0.3 4 2 0 2 -2 2.4 -6.2 1.3z"/>
  <path d="M1309 23 c0 -1.6 0.7 -2 3.8 -2 5.2 0 8.2 1 8.2 2.6 0 1 -1.6 1.4 -6 1.4 -5.3 0 -6 -0.2 -6 -2z"/>
  <path d="M595 22.6 c0 -1.6 3 -2.6 8.3 -2.6 3 0 3.7 0.4 3.7 2 0 1.8 -0.7 2 -6 2 -4.4 0 -6 -0.4 -6 -1.4z"/>
  <path d="M700 22 c0 -1.6 0.7 -2 3.5 -2 4 0 4.9 2.4 1.3 3.4 -3.8 1 -4.8 0.7 -4.8 -1.4z"/>
  <path d="M1177.8 23.3 c-3.3 -0.8 -2 -3.3 1.7 -3.3 2.8 0 3.5 0.4 3.5 2 0 2 -1.4 2.3 -5.2 1.3z"/>
  <path d="M1276 22 c0 -1.6 0.7 -2 3.8 -2 5.2 0 8.2 1 8.2 2.6 0 1 -1.6 1.4 -6 1.4 -5.3 0 -6 -0.2 -6 -2z"/>
  <path d="M631 21.6 c0 -1.7 3.1 -2.6 8.8 -2.6 3.5 0 4.2 0.3 4.2 2 0 1.8 -0.7 2 -6.5 2 -4.9 0 -6.5 -0.3 -6.5 -1.4z"/>
  <path d="M1239 21 c0 -1.7 0.7 -2 4.3 -2 5.6 0 8.7 0.9 8.7 2.6 0 1.1 -1.6 1.4 -6.5 1.4 -5.8 0 -6.5 -0.2 -6.5 -2z"/>
  <path d="M673 20.6 c0 -1.8 3.1 -2.6 10.3 -2.6 5 0 5.7 0.2 5.7 2 0 1.8 -0.7 2 -8 2 -6.1 0 -8 -0.3 -8 -1.4z"/>
  <path d="M861 20 c0 -1.8 0.7 -2 7 -2 5.3 0 7 0.3 7 1.4 0 1.7 -3.1 2.6 -9.2 2.6 -4.1 0 -4.8 -0.3 -4.8 -2z"/>
  <path d="M1009.8 21.3 c-1 -0.2 -1.8 -1.1 -1.8 -1.9 0 -1.1 1.6 -1.4 7 -1.4 6.3 0 7 0.2 7 2 0 1.8 -0.6 2 -5.2 1.9 -2.9 -0.1 -6.1 -0.3 -7 -0.6z"/>
  <path d="M1192 20 c0 -1.8 0.7 -2 6.8 -2 8 0 11.2 0.8 11.2 2.6 0 1.1 -2 1.4 -9 1.4 -8.3 0 -9 -0.1 -9 -2z"/>
  <path d="M724 19.6 c0 -1.8 3.1 -2.6 10.8 -2.6 5.5 0 6.2 0.2 6.2 2 0 1.8 -0.7 2 -8.5 2 -6.6 0 -8.5 -0.3 -8.5 -1.4z"/>
  <path d="M1144 19 c0 -1.7 0.7 -2 5.3 -2 6.6 0 9.7 0.9 9.7 2.6 0 1.1 -1.8 1.4 -7.5 1.4 -6.8 0 -7.5 -0.2 -7.5 -2z"/>
  <path d="M793 18.6 c0 -1.9 3.2 -2.6 12.3 -2.6 7 0 7.7 0.2 7.7 2 0 1.9 -0.7 2 -10 2 -7.8 0 -10 -0.3 -10 -1.4z"/>
  <path d="M1074 18 c0 -1.8 0.7 -2 8.8 -2 10 0 13.2 0.7 13.2 2.6 0 1.1 -2.3 1.4 -11 1.4 -10.3 0 -11 -0.1 -11 -2z"/>
 </g>
 <g fill="#4b1832">
  <path d="M191 44.1 c0 -0.6 0.6 -1.4 1.3 -1.6 1.5 -0.5 29.3 -2.9 59.7 -5 12.4 -0.9 28 -2 34.8 -2.5 16.4 -1.3 16.2 -1.3 16.2 0.9 0 2.3 2.1 2.1 -56 5.6 -22.8 1.4 -44.8 2.8 -48.7 3.2 -5.3 0.4 -7.3 0.2 -7.3 -0.6z"/>
  <path d="M1681 44.4 c-1.4 -0.2 -21.4 -1.5 -44.5 -2.9 -58.9 -3.5 -56.5 -3.3 -56.5 -5.7 0 -1.9 0.4 -2 6.8 -1.4 3.7 0.3 17.3 1.3 30.2 2.1 33 2.2 73.1 5.5 74.1 6.1 3.3 2 -1.8 2.9 -10.1 1.8z"/>
  <path d="M306 36.1 c0 -1.4 1 -2 4.6 -2.5 6.8 -0.9 7.4 -0.8 7.4 1.3 0 1.9 -3.4 3.1 -9.1 3.1 -2.2 0 -2.9 -0.5 -2.9 -1.9z"/>
  <path d="M1566.8 37.3 c-2 -0.3 -2.8 -1 -2.8 -2.4 0 -2.1 1.1 -2.3 8.4 -1.3 3.6 0.5 4.6 1.1 4.6 2.5 0 1.9 -3 2.3 -10.2 1.2z"/>
  <path d="M324.3 36.3 c-2.1 -0.8 -1.5 -3 1 -3.7 1.2 -0.3 3.9 -0.6 6 -0.6 3 0 3.7 0.4 3.7 1.9 0 2.6 -6.7 4.1 -10.7 2.4z"/>
  <path d="M1549.8 36.3 c-1 -0.2 -1.8 -1.4 -1.8 -2.5 0 -1.9 0.5 -2 5 -1.6 5.7 0.6 6.5 1 5.7 3.3 -0.6 1.5 -4.9 1.9 -8.9 0.8z"/>
  <path d="M342.3 35.3 c-3.3 -0.6 -2.8 -3 0.8 -3.8 4.3 -1 11.9 0.3 11.9 1.9 0 2.2 -6.3 3.1 -12.7 1.9z"/>
  <path d="M1529.8 35.3 c-3 -0.8 -2 -3.2 1.6 -3.9 4.3 -0.8 9.6 0.3 9.6 2.1 0 2.2 -5.9 3.2 -11.2 1.8z"/>
  <path d="M362.3 34.3 c-3.1 -0.6 -2.9 -2.9 0.2 -3.7 3.7 -0.9 12.5 0.4 12.5 1.9 0 2.1 -6.3 3 -12.7 1.8z"/>
  <path d="M1509.8 34.3 c-3.5 -0.9 -1.8 -3.1 2.7 -3.8 5.5 -0.8 10.5 0.2 10.5 1.9 0 2 -8.5 3.2 -13.2 1.9z"/>
  <path d="M381.8 33.3 c-4.6 -0.5 -5.1 -2.9 -0.8 -3.8 4.3 -0.9 14 0.4 14 2 0 2.2 -3.9 2.7 -13.2 1.8z"/>
  <path d="M1489.8 33.3 c-1 -0.2 -1.8 -1 -1.8 -1.7 0 -1.6 10.5 -3 14.4 -2 4.4 1.1 3 3.1 -2.6 3.8 -5.7 0.6 -7.3 0.6 -10 -0.1z"/>
  <path d="M402.8 32.3 c-5.1 -0.4 -6.6 -2.6 -2.6 -3.7 3.8 -0.9 16.8 0.5 16.8 1.9 0 0.7 -1 1.5 -2.2 1.9 -2.3 0.6 -3.2 0.6 -12 -0.1z"/>
  <path d="M1467.5 32.1 c-1.1 -0.5 -3.9 -1 -6.2 -1 -3.7 -0.1 -4.3 -0.4 -4.3 -2.2 0 -2 0.3 -2.1 4.3 -1.3 2.3 0.4 7.8 0.8 12.2 0.9 11 0.2 11.5 0.3 11.5 2 0 1 -1 1.5 -2.7 1.5 -1.6 0 -5 0.2 -7.8 0.5 -2.7 0.3 -5.9 0.1 -7 -0.4z"/>
  <path d="M430 30.3 c0 -1.7 0.9 -2.2 5.3 -2.7 2.8 -0.3 6.9 -0.9 9 -1.2 3.2 -0.5 3.7 -0.4 3.7 1.4 0 2.1 -0.1 2.1 -12.7 3.8 -4.9 0.6 -5.3 0.5 -5.3 -1.3z"/>
  <path d="M1443.5 31 c-1.1 -0.5 -3.5 -0.9 -5.2 -0.9 -2.7 -0.1 -3.3 -0.5 -3.3 -2.2 0 -1.9 0.4 -2 3.8 -1.6 2 0.3 6.1 0.9 9 1.3 4.2 0.5 5.2 1 5.2 2.5 0 1.5 -0.7 1.9 -3.7 1.8 -2.1 0 -4.7 -0.4 -5.8 -0.9z"/>
  <path d="M418 29.6 c0 -1.4 2.9 -2.6 6.8 -2.6 1.5 0 2.2 0.6 2.2 2 0 1.7 -0.7 2 -4.5 2 -3.2 0 -4.5 -0.4 -4.5 -1.4z"/>
  <path d="M454 29.3 c0 -1.7 0.9 -2.2 4.8 -2.7 2.6 -0.3 6.4 -0.9 8.5 -1.2 3.2 -0.5 3.7 -0.4 3.7 1.4 0 2.1 -0.8 2.3 -12.2 3.8 -4.3 0.6 -4.8 0.5 -4.8 -1.3z"/>
  <path d="M1419.5 30 c-1.1 -0.5 -3.2 -0.9 -4.7 -0.9 -2.2 -0.1 -2.8 -0.6 -2.8 -2.2 0 -1.9 0.4 -2 3.8 -1.6 12.9 1.8 13.2 1.9 13.2 3.8 0 1.5 -0.7 1.9 -3.7 1.8 -2.1 0 -4.7 -0.4 -5.8 -0.9z"/>
  <path d="M480 28.2 c0 -1.3 1.4 -2.1 5.3 -3 7.6 -1.7 10.7 -1.6 10.7 0.6 0 1.3 -1.4 2.1 -5.3 3 -7.6 1.7 -10.7 1.6 -10.7 -0.6z"/>
  <path d="M1392.3 28.8 c-4.1 -1.3 -4.7 -4.8 -0.8 -4.8 5.1 0 11.5 2.3 11.5 4.2 0 1.4 -0.8 1.8 -3.7 1.7 -2.1 -0.1 -5.3 -0.6 -7 -1.1z"/>
  <path d="M507 27.2 c0 -1.3 1.3 -2.1 4.5 -3 6.6 -1.7 8.5 -1.6 8.5 0.8 0 2.5 -3.5 4 -9.1 4 -3.1 0 -3.9 -0.4 -3.9 -1.8z"/>
  <path d="M1365.3 28 c-3.4 -1.4 -3.1 -5 0.3 -5 5 0 10.4 2.2 10.4 4.2 0 1.5 -0.8 1.8 -4.2 1.7 -2.4 0 -5.3 -0.4 -6.5 -0.9z"/>
  <path d="M536 26.3 c0 -1.4 1.1 -2.3 3.9 -3.1 5.6 -1.7 7.9 -1.5 8.6 0.9 0.9 2.9 0.3 3.2 -6.5 3.7 -5.4 0.4 -6 0.3 -6 -1.5z"/>
  <path d="M1335.8 27.3 c-2.2 -0.5 -2.3 -2 -0.4 -3.9 2.9 -2.9 11.6 -1 11.6 2.6 0 1.7 -0.6 2 -4.7 1.9 -2.7 -0.1 -5.6 -0.3 -6.5 -0.6z"/>
  <path d="M568 25 c0 -1.3 1 -2.4 2.6 -3 3.3 -1.3 7.4 -1.3 7.4 0 0 0.6 0.7 1 1.5 1 2.4 0 1.8 2.7 -0.7 3.4 -1.3 0.3 -4.2 0.6 -6.5 0.6 -3.7 0 -4.3 -0.3 -4.3 -2z"/>
  <path d="M1303.8 26.3 c-2.2 -0.5 -2.4 -3.3 -0.3 -3.3 0.8 0 1.5 -0.4 1.5 -1 0 -1.1 4.2 -1.3 7.8 -0.4 1.5 0.4 2.2 1.4 2.2 3 0 2.2 -0.4 2.4 -4.7 2.3 -2.7 -0.1 -5.6 -0.3 -6.5 -0.6z"/>
  <path d="M602.3 24.5 c-1.9 -2.1 -1.6 -3.2 1 -3.9 3.5 -0.9 7.7 -0.7 7.7 0.4 0 0.6 1.4 1 3 1 3.6 0 4.1 2.5 0.8 3.4 -4.1 1.1 -11.3 0.6 -12.5 -0.9z"/>
  <path d="M1267.8 25.3 c-3.1 -0.8 -2.1 -3.3 1.2 -3.3 1.7 0 3 -0.4 3 -1 0 -1.1 4.2 -1.3 7.8 -0.4 2.5 0.7 2.8 1.9 0.8 4 -1.4 1.3 -8.8 1.8 -12.8 0.7z"/>
  <path d="M641 24 c0 -0.5 -0.7 -1 -1.5 -1 -2.4 0 -1.8 -2.7 0.8 -3.4 3.4 -0.9 6.7 -0.7 6.7 0.4 0 0.6 2.5 1 5.5 1 4 0 5.5 0.4 5.5 1.4 0 0.7 -1 1.6 -2.2 2 -3.7 1 -14.8 0.7 -14.8 -0.4z"/>
  <path d="M1226.8 24.3 c-1 -0.2 -1.8 -1.1 -1.8 -1.9 0 -1 1.4 -1.4 5.5 -1.4 3 0 5.5 -0.4 5.5 -1 0 -1.1 3.3 -1.3 6.8 -0.4 2.5 0.7 3.1 3.4 0.7 3.4 -0.8 0 -1.5 0.5 -1.5 1 0 1 -11.7 1.2 -15.2 0.3z"/>
  <path d="M688 23 c0 -0.5 -1.1 -1 -2.5 -1 -1.5 0 -2.5 -0.6 -2.5 -1.5 0 -1.8 7.2 -3.4 7.8 -1.6 0.2 0.7 3.1 1.1 7.8 1.1 5.6 0 7.4 0.3 7.4 1.4 0 0.7 -1 1.6 -2.2 2 -3.8 1 -15.8 0.7 -15.8 -0.4z"/>
  <path d="M1178.8 23.3 c-1 -0.2 -1.8 -1.1 -1.8 -1.9 0 -1.1 1.6 -1.4 6.9 -1.4 4.3 0 7.1 -0.4 7.3 -1.1 0.6 -1.7 6.8 -0.1 6.8 1.7 0 0.8 -0.7 1.4 -1.5 1.4 -0.8 0 -1.5 0.5 -1.5 1 0 1 -12.7 1.2 -16.2 0.3z"/>
  <path d="M746 21 c0 -1.9 0.7 -2 10.5 -2 8.3 0 10.5 0.3 10.5 1.4 0 1.9 -3.2 2.6 -12.7 2.6 -7.6 0 -8.3 -0.2 -8.3 -2z"/>
  <path d="M1116.8 22.3 c-1 -0.2 -1.8 -1.1 -1.8 -1.9 0 -1.1 2.1 -1.4 11 -1.4 10.3 0 11 0.1 11 2 0 1.9 -0.6 2 -9.2 1.9 -5.1 -0.1 -10.1 -0.3 -11 -0.6z"/>
  <path d="M832 20 c0 -1.9 0.7 -2 17.5 -2 14.2 0 17.5 0.3 17.5 1.4 0 2.1 -3.3 2.6 -19.7 2.6 -14.6 0 -15.3 -0.1 -15.3 -2z"/>
  <path d="M1017.8 21.3 c-1 -0.2 -1.8 -1.1 -1.8 -1.9 0 -1.2 3 -1.4 17.5 -1.4 16.8 0 17.5 0.1 17.5 2 0 1.9 -0.6 2 -15.7 1.9 -8.7 -0.1 -16.6 -0.3 -17.5 -0.6z"/>
 </g>
 <g fill="#6c0f1e">
  <path d="M646 21 c0 -1.8 0.7 -2 6 -2 5.3 0 6 0.2 6 2 0 1.8 -0.7 2 -6 2 -5.3 0 -6 -0.2 -6 -2z"/>
  <path d="M685 20.6 c0 -1.9 3.2 -2.6 12.3 -2.6 7 0 7.7 0.2 7.7 2 0 1.9 -0.7 2 -10 2 -7.8 0 -10 -0.3 -10 -1.4z"/>
  <path d="M1177 20 c0 -1.8 0.7 -2 7.8 -2 9 0 12.2 0.7 12.2 2.6 0 1.1 -2.2 1.4 -10 1.4 -9.3 0 -10 -0.1 -10 -2z"/>
  <path d="M735 19.6 c0 -2 3.3 -2.6 15.8 -2.6 10.5 0 11.2 0.1 11.2 2 0 1.9 -0.7 2 -13.5 2 -10.8 0 -13.5 -0.3 -13.5 -1.4z"/>
  <path d="M1120 19 c0 -1.9 0.7 -2 12.8 -2 13.9 0 17.2 0.5 17.2 2.6 0 1.1 -2.9 1.4 -15 1.4 -14.3 0 -15 -0.1 -15 -2z"/>
  <path d="M807 18.6 c0 -2.2 3.4 -2.6 24.3 -2.6 19 0 19.7 0.1 19.7 2 0 1.9 -0.7 2 -22 2 -18.1 0 -22 -0.2 -22 -1.4z"/>
  <path d="M1037 18 c0 -1.9 0.7 -2 19.3 -2 20.3 0 23.7 0.4 23.7 2.6 0 1.2 -3.9 1.4 -21.5 1.4 -20.8 0 -21.5 -0.1 -21.5 -2z"/>
 </g>
 <g fill="#6a1a3b">
  <path d="M262 39 c1.2 -0.8 1.2 -1 0.1 -1 -0.8 0 -1.2 -0.2 -1 -0.4 0.2 -0.3 10.8 -1.2 23.4 -2 25.1 -1.8 69.3 -4.6 71.3 -4.6 0.6 0 1.2 0.9 1.2 1.9 0 2.2 3.8 1.8 -56 5.1 -41.3 2.3 -41 2.3 -39 1z"/>
  <path d="M1578 37.9 c-55.5 -3.2 -52 -2.8 -52 -5 0 -1 0.3 -1.9 0.8 -1.9 1.9 0 79.7 5 87.2 5.6 4.7 0.4 7.9 0.9 7.1 1.2 -1.1 0.4 -1.1 0.6 0 1.3 1.9 1.2 -5.5 1 -43.1 -1.2z"/>
  <path d="M359 33.1 c0 -1.5 1 -1.9 5.3 -2.5 8.4 -1 9.7 -0.8 9.7 1.3 0 1.5 -1 1.9 -5.2 2.5 -8.5 1 -9.8 0.8 -9.8 -1.3z"/>
  <path d="M1512.3 34.3 c-2.5 -0.3 -3.3 -0.9 -3.3 -2.5 0 -1.9 0.4 -2 5.3 -1.4 2.8 0.3 6.2 0.6 7.5 0.6 1.5 0 2.2 0.6 2.2 2 0 1.7 -0.6 2 -4.2 1.8 -2.4 0 -5.8 -0.3 -7.5 -0.5z"/>
  <path d="M380 32.1 c0 -1.4 1 -2 4.6 -2.5 7.3 -1 8.4 -0.8 8.4 1.3 0 1.4 -1 2 -3.7 2.5 -6.9 1.1 -9.3 0.8 -9.3 -1.3z"/>
  <path d="M1492.8 33.3 c-2 -0.3 -2.8 -1 -2.8 -2.4 0 -2.1 2.3 -2.4 9.3 -1.3 2.7 0.5 3.7 1.1 3.7 2.5 0 1.6 -0.7 1.9 -3.7 1.8 -2.1 -0.1 -5 -0.4 -6.5 -0.6z"/>
  <path d="M401.4 31.6 c-0.9 -2.4 -0.1 -2.8 5.6 -3.4 4 -0.4 5.1 -0.1 5.6 1.2 0.9 2.4 0.1 2.8 -5.6 3.4 -4 0.4 -5.1 0.1 -5.6 -1.2z"/>
  <path d="M1471.7 32.3 c-1 -0.3 -1.7 -1.2 -1.5 -2.1 0.3 -1.3 1.5 -1.7 5.5 -1.7 5.7 0.1 6.8 0.6 6 3 -0.6 1.5 -5.7 1.9 -10 0.8z"/>
  <path d="M423.3 31.3 c-3.3 -0.6 -2.8 -3 0.8 -3.8 4.3 -1 11.9 0.3 11.9 1.9 0 2.2 -6.3 3.1 -12.7 1.9z"/>
  <path d="M1448.8 31.3 c-3.7 -0.9 -1.8 -3.1 3.2 -3.8 5.8 -0.8 11 0.1 11 1.9 0 2 -9.3 3.2 -14.2 1.9z"/>
  <path d="M446.3 30.3 c-4.9 -0.5 -5.8 -2.7 -1.6 -3.8 4 -1 15.3 0.5 15.3 2 0 0.7 -1 1.5 -2.2 1.9 -2.3 0.6 -3.8 0.6 -11.5 -0.1z"/>
  <path d="M1424.8 30.4 c-1 -0.3 -1.8 -1.1 -1.8 -1.9 0 -1.5 11.2 -3 15.3 -2 3.3 0.9 3.6 3.5 0.5 3.5 -1.3 0 -4.5 0.2 -7.3 0.4 -2.7 0.3 -5.8 0.2 -6.7 0z"/>
  <path d="M470.3 29.3 c-5.7 -0.4 -7.3 -2.6 -2.8 -3.7 4.1 -1 18.5 0.5 18.5 1.9 0 0.7 -1 1.5 -2.2 1.9 -2.3 0.6 -3.6 0.6 -13.5 -0.1z"/>
  <path d="M1398.8 29.4 c-1 -0.3 -1.8 -1.1 -1.8 -1.8 0 -1.5 14.4 -3.1 18.5 -2 3.5 0.9 3.2 3.4 -0.4 3.4 -1.5 0 -5.5 0.2 -8.7 0.4 -3.2 0.3 -6.7 0.3 -7.6 0z"/>
  <path d="M503 27 c0 -1.7 0.7 -2 5 -2 3.6 0 5 0.4 5 1.4 0 1.5 -3 2.6 -7.2 2.6 -2.1 0 -2.8 -0.5 -2.8 -2z"/>
  <path d="M1371.8 28.3 c-1 -0.2 -1.8 -1.1 -1.8 -1.9 0 -1 1.3 -1.4 5 -1.4 4.3 0 5 0.3 5 2 0 1.6 -0.6 2 -3.2 1.9 -1.8 -0.1 -4.1 -0.3 -5 -0.6z"/>
  <path d="M490 26.6 c0 -1.5 3 -2.6 7.3 -2.6 2 0 2.7 0.5 2.7 2 0 1.7 -0.7 2 -5 2 -3.6 0 -5 -0.4 -5 -1.4z"/>
  <path d="M532 26.2 c0 -1.7 0.9 -2.1 6.3 -2.6 3.4 -0.4 8.3 -1 11 -1.3 4.2 -0.4 4.7 -0.3 4.7 1.5 0 1.7 -0.9 2.1 -6.7 2.6 -3.8 0.3 -8.7 0.8 -11 1.2 -3.8 0.5 -4.3 0.4 -4.3 -1.4z"/>
  <path d="M1342.5 27 c-1.1 -0.5 -4.1 -0.9 -6.7 -0.9 -4.2 -0.1 -4.8 -0.4 -4.8 -2.2 0 -1.9 0.4 -2 4.3 -1.6 2.3 0.3 6.8 0.9 10 1.3 4.7 0.5 5.7 1 5.7 2.5 0 1.5 -0.7 1.9 -3.2 1.8 -1.8 0 -4.2 -0.4 -5.3 -0.9z"/>
  <path d="M1384 26 c0 -1.6 0.7 -2 3.3 -2 4.7 0 7.7 1 7.7 2.6 0 1 -1.5 1.4 -5.5 1.4 -4.8 0 -5.5 -0.2 -5.5 -2z"/>
  <path d="M514 25.6 c0 -1.6 3 -2.6 8.3 -2.6 3 0 3.7 0.4 3.7 2 0 1.8 -0.7 2 -6 2 -4.4 0 -6 -0.4 -6 -1.4z"/>
  <path d="M563 25.2 c0 -2.1 -0.4 -2 15.8 -3.8 5.8 -0.6 6.2 -0.5 6.2 1.4 0 1.7 -0.9 2.1 -6.2 2.6 -3.5 0.3 -8.4 0.9 -11 1.2 -4.3 0.5 -4.8 0.4 -4.8 -1.4z"/>
  <path d="M1310.5 26 c-1.1 -0.5 -4.1 -0.9 -6.7 -0.9 -4.2 -0.1 -4.8 -0.4 -4.8 -2.2 0 -1.9 0.4 -2 4.8 -1.6 16 1.8 16.2 1.9 16.2 3.8 0 1.5 -0.7 1.9 -3.7 1.8 -2.1 0 -4.7 -0.4 -5.8 -0.9z"/>
  <path d="M1359 25 c0 -1.5 0.7 -2 2.8 -2 4.2 0 7.2 1.1 7.2 2.6 0 1 -1.4 1.4 -5 1.4 -4.3 0 -5 -0.3 -5 -2z"/>
  <path d="M597 24.2 c0 -2.1 1 -2.4 15.8 -3.8 5.7 -0.6 6.2 -0.5 6.2 1.4 0 1.7 -0.9 2.1 -6.2 2.6 -3.5 0.4 -8.4 1 -11 1.3 -4.3 0.4 -4.8 0.3 -4.8 -1.5z"/>
  <path d="M1275.5 25 c-1.1 -0.5 -3.9 -0.9 -6.2 -0.9 -3.7 -0.1 -4.3 -0.4 -4.3 -2.2 0 -2 0.4 -2.1 5.8 -1.5 14.8 1.6 15.2 1.7 15.2 3.7 0 1.6 -0.7 1.9 -4.2 1.8 -2.4 0 -5.2 -0.4 -6.3 -0.9z"/>
  <path d="M636 23.3 c0 -1.5 1.2 -2.1 5.8 -3.1 3.1 -0.6 6.8 -0.9 8.2 -0.7 1.4 0.2 3.1 0.4 3.8 0.4 0.6 0.1 1.2 0.7 1.2 1.5 0 0.9 -1.8 1.6 -5.2 2 -14.3 1.9 -13.8 1.9 -13.8 -0.1z"/>
  <path d="M1237.5 24 c-1.1 -0.5 -4.1 -0.9 -6.7 -0.9 -4.1 -0.1 -4.8 -0.4 -4.8 -2.1 0 -1.7 0.7 -2 5.2 -2 8 0 15.8 2.1 15.8 4.2 0 1.4 -0.8 1.8 -3.7 1.7 -2.1 0 -4.7 -0.4 -5.8 -0.9z"/>
  <path d="M681 22 c0 -1.8 0.7 -2 6.5 -2 4.9 0 6.5 0.3 6.5 1.4 0 1.7 -3.1 2.6 -8.7 2.6 -3.6 0 -4.3 -0.3 -4.3 -2z"/>
  <path d="M1190.8 23.3 c-1 -0.2 -1.8 -1.1 -1.8 -1.9 0 -1.1 1.5 -1.4 6.5 -1.4 5.8 0 6.5 0.2 6.5 2 0 1.7 -0.6 2 -4.7 1.9 -2.7 -0.1 -5.6 -0.3 -6.5 -0.6z"/>
  <path d="M735 21 c0 -1.8 0.7 -2 8.5 -2 6.6 0 8.5 0.3 8.5 1.4 0 1.8 -3.1 2.6 -10.7 2.6 -5.6 0 -6.3 -0.2 -6.3 -2z"/>
  <path d="M1132.8 22.3 c-1 -0.2 -1.8 -1.1 -1.8 -1.9 0 -1.1 1.8 -1.4 8.5 -1.4 7.8 0 8.5 0.2 8.5 2 0 1.8 -0.6 2 -6.7 1.9 -3.8 -0.1 -7.6 -0.3 -8.5 -0.6z"/>
  <path d="M813 20 c0 -1.9 0.7 -2 12.5 -2 10 0 12.5 0.3 12.5 1.4 0 2 -3.2 2.6 -14.7 2.6 -9.6 0 -10.3 -0.1 -10.3 -2z"/>
  <path d="M1046.8 21.3 c-1 -0.2 -1.8 -1.1 -1.8 -1.9 0 -1.1 2.3 -1.4 12.5 -1.4 11.8 0 12.5 0.1 12.5 2 0 1.9 -0.6 2 -10.7 1.9 -6 -0.1 -11.6 -0.3 -12.5 -0.6z"/>
 </g>
 <g fill="#841f4b">
  <path d="M342.1 34.1 c-1.1 -0.7 -1 -1 0.5 -1.5 1.7 -0.5 36.7 -2.6 67.4 -4.1 6.3 -0.3 15 -0.8 19.3 -1.1 7.3 -0.6 7.7 -0.5 7.7 1.5 0 1.2 -0.1 2.1 -0.2 2.1 -0.2 0 -19.2 0.9 -42.3 2 -47.5 2.2 -50.5 2.3 -52.4 1.1z"/>
  <path d="M1486.5 32.9 c-19.2 -0.9 -36.2 -1.8 -37.7 -1.8 -2.2 -0.1 -2.8 -0.6 -2.8 -2.2 0 -2 0.3 -2.1 8.8 -1.5 4.8 0.3 17.7 1.1 28.7 1.6 34.3 1.8 54.9 3.1 56.9 3.7 1.5 0.4 1.6 0.7 0.5 1.4 -1.9 1.2 -12.8 0.9 -54.4 -1.2z"/>
  <path d="M445 29.1 c0 -1.4 1 -2 3.8 -2.5 6.8 -1.1 9.2 -0.8 9.2 1.3 0 1.4 -1 2 -3.7 2.5 -6.9 1.1 -9.3 0.8 -9.3 -1.3z"/>
  <path d="M1427.8 30.3 c-2 -0.3 -2.8 -1 -2.8 -2.4 0 -2.1 2.3 -2.4 9.3 -1.3 2.7 0.5 3.7 1.1 3.7 2.5 0 1.6 -0.7 1.9 -3.7 1.8 -2.1 -0.1 -5 -0.4 -6.5 -0.6z"/>
  <path d="M470.4 28.6 c-0.9 -2.3 -0.2 -2.8 5 -3.3 3.7 -0.5 4.7 -0.2 5.2 1.1 0.9 2.3 0.2 2.8 -5 3.3 -3.7 0.5 -4.7 0.2 -5.2 -1.1z"/>
  <path d="M1403.7 29.3 c-1 -0.3 -1.7 -1.2 -1.5 -2.1 0.3 -1.3 1.4 -1.7 5.1 -1.6 5.2 0 6.2 0.6 5.4 2.9 -0.6 1.5 -4.9 1.9 -9 0.8z"/>
  <path d="M496.8 28.3 c-3.8 -0.6 -3.5 -3 0.3 -3.8 4.3 -1 11.9 0.3 11.9 1.9 0 2.3 -4.9 3 -12.2 1.9z"/>
  <path d="M1375.8 28.3 c-3.7 -0.9 -1.8 -3.1 3.2 -3.8 5.8 -0.8 11 0.1 11 1.9 0 1.9 -9.6 3.1 -14.2 1.9z"/>
  <path d="M524.3 27.3 c-4.8 -0.5 -5.9 -2.7 -1.8 -3.7 3.9 -1 15.5 0.5 15.5 1.9 0 0.7 -1 1.5 -2.2 1.9 -2.3 0.6 -3.8 0.6 -11.5 -0.1z"/>
  <path d="M1346.8 27.4 c-1 -0.3 -1.8 -1.1 -1.8 -1.9 0 -1.5 13.1 -3 17.3 -2 3.9 1 3.5 3.5 -0.5 3.5 -1.8 0 -5.5 0.2 -8.3 0.4 -2.7 0.3 -5.8 0.2 -6.7 0z"/>
  <path d="M553.8 26.3 c-6.2 -0.4 -8 -2.5 -3.3 -3.7 4.1 -1 18.5 0.5 18.5 1.9 0 1.5 -3.4 2.6 -7 2.3 -1.4 -0.1 -5.1 -0.3 -8.2 -0.5z"/>
  <path d="M1315.8 26.3 c-1 -0.2 -1.8 -1.1 -1.8 -1.9 0 -1 1.3 -1.4 5 -1.4 4.3 0 5 0.3 5 2 0 1.6 -0.6 2 -3.2 1.9 -1.8 -0.1 -4.1 -0.3 -5 -0.6z"/>
  <path d="M592 24 c0 -1.8 0.7 -2 5.5 -2 4 0 5.5 0.4 5.5 1.4 0 1.6 -3 2.6 -7.7 2.6 -2.6 0 -3.3 -0.4 -3.3 -2z"/>
  <path d="M1281.8 25.3 c-1 -0.2 -1.8 -1.1 -1.8 -1.9 0 -1 1.4 -1.4 5.5 -1.4 4.8 0 5.5 0.2 5.5 2 0 1.7 -0.6 2 -3.7 1.9 -2.1 -0.1 -4.6 -0.3 -5.5 -0.6z"/>
  <path d="M1325 24 c0 -1.6 0.7 -2 3.8 -2 5.2 0 8.2 1 8.2 2.6 0 1 -1.6 1.4 -6 1.4 -5.3 0 -6 -0.2 -6 -2z"/>
  <path d="M579 23.6 c0 -1.6 3 -2.6 7.8 -2.6 2.5 0 3.2 0.4 3.2 2 0 1.8 -0.7 2 -5.5 2 -4 0 -5.5 -0.4 -5.5 -1.4z"/>
  <path d="M629 23 c0 -1.8 0.7 -2 6.5 -2 4.9 0 6.5 0.3 6.5 1.4 0 1.7 -3.1 2.6 -8.7 2.6 -3.6 0 -4.3 -0.3 -4.3 -2z"/>
  <path d="M1242.8 24.3 c-1 -0.2 -1.8 -1.1 -1.8 -1.9 0 -1.1 1.5 -1.4 6.5 -1.4 5.8 0 6.5 0.2 6.5 2 0 1.7 -0.6 2 -4.7 1.9 -2.7 -0.1 -5.6 -0.3 -6.5 -0.6z"/>
  <path d="M1294 23 c0 -1.6 0.7 -2 3.3 -2 4.7 0 7.7 1 7.7 2.6 0 1 -1.5 1.4 -5.5 1.4 -4.8 0 -5.5 -0.2 -5.5 -2z"/>
  <path d="M613 22.6 c0 -1.6 3 -2.6 7.8 -2.6 2.5 0 3.2 0.4 3.2 2 0 1.8 -0.7 2 -5.5 2 -4 0 -5.5 -0.4 -5.5 -1.4z"/>
  <path d="M674 22 c0 -1.8 0.7 -2 6.5 -2 4.9 0 6.5 0.3 6.5 1.4 0 1.7 -3.1 2.6 -8.7 2.6 -3.6 0 -4.3 -0.3 -4.3 -2z"/>
  <path d="M1197.8 23.3 c-1 -0.2 -1.8 -1.1 -1.8 -1.9 0 -1.1 1.5 -1.4 6.5 -1.4 5.8 0 6.5 0.2 6.5 2 0 1.7 -0.6 2 -4.7 1.9 -2.7 -0.1 -5.6 -0.3 -6.5 -0.6z"/>
  <path d="M1259 22 c0 -1.6 0.7 -2 3.8 -2 5.2 0 8.2 1 8.2 2.6 0 1 -1.6 1.4 -6 1.4 -5.3 0 -6 -0.2 -6 -2z"/>
  <path d="M652 21.6 c0 -1.3 2.8 -2.6 5.8 -2.6 0.6 0 1.2 0.9 1.2 2 0 1.6 -0.7 2 -3.5 2 -2.3 0 -3.5 -0.5 -3.5 -1.4z"/>
  <path d="M730 21 c0 -1.8 0.7 -2 5.5 -2 4 0 5.5 0.4 5.5 1.4 0 1.6 -3 2.6 -7.7 2.6 -2.6 0 -3.3 -0.4 -3.3 -2z"/>
  <path d="M1143.8 22.3 c-1 -0.2 -1.8 -1.1 -1.8 -1.9 0 -1 1.4 -1.4 5.5 -1.4 4.8 0 5.5 0.2 5.5 2 0 1.7 -0.6 2 -3.7 1.9 -2.1 -0.1 -4.6 -0.3 -5.5 -0.6z"/>
  <path d="M1223 21 c0 -2.1 2.3 -2.6 6.8 -1.4 4.1 1.1 2.6 3.4 -2.3 3.4 -3.8 0 -4.5 -0.3 -4.5 -2z"/>
  <path d="M807 20 c0 -1.8 0.7 -2 6 -2 4.4 0 6 0.4 6 1.4 0 1.6 -3 2.6 -8.2 2.6 -3.1 0 -3.8 -0.4 -3.8 -2z"/>
  <path d="M1065.8 21.3 c-1 -0.2 -1.8 -1.1 -1.8 -1.9 0 -1.1 1.5 -1.4 6 -1.4 5.3 0 6 0.2 6 2 0 1.7 -0.6 2 -4.2 1.9 -2.4 -0.1 -5.1 -0.3 -6 -0.6z"/>
 </g>
 <g fill="#a21737">
  <path d="M621 22 c0 -1.7 0.7 -2 4 -2 3.3 0 4 0.3 4 2 0 1.7 -0.7 2 -4 2 -3.3 0 -4 -0.3 -4 -2z"/>
  <path d="M660.3 23.3 c-5.3 -0.3 -7.3 -0.8 -7.3 -1.7 0 -1.8 3.2 -2.6 10.6 -2.6 8.9 0 15.4 1.1 15.4 2.5 0 1.8 -2.4 2.5 -7.3 2.3 -2.3 -0.1 -7.5 -0.4 -11.4 -0.5z"/>
  <path d="M1205.3 23.4 c-0.7 -0.3 -1.3 -1.1 -1.3 -1.8 0 -2.1 17 -3.5 22.8 -2 3.8 1.1 2.7 3.4 -1.6 3.4 -2.2 0 -7.2 0.2 -11.3 0.5 -4.1 0.3 -8 0.2 -8.6 -0.1z"/>
  <path d="M708.3 22.3 c-7 -0.3 -9.3 -0.7 -9.3 -1.7 0 -2.3 4.9 -2.8 21.3 -2.1 11.5 0.6 15.7 1.1 15.7 2 0 2.5 -2.7 2.6 -27.7 1.8z"/>
  <path d="M1148.8 22.4 c-1 -0.3 -1.8 -1.1 -1.8 -1.8 0 -1 3.8 -1.5 15.3 -2 16 -0.8 20.7 -0.3 20.7 2 0 1 -1.3 1.4 -4.3 1.4 -2.4 0 -9.7 0.2 -16.3 0.5 -6.5 0.2 -12.7 0.2 -13.6 -0.1z"/>
  <path d="M788 20.1 c0 -2 0.6 -2.1 13.5 -2.1 10.8 0 13.5 0.3 13.5 1.4 0 2 -2.3 2.3 -15.4 2.5 -11.1 0.2 -11.6 0.1 -11.6 -1.8z"/>
  <path d="M1069.8 21.3 c-1 -0.3 -1.8 -1.1 -1.8 -1.9 0 -1.1 2.5 -1.4 13.5 -1.4 12.9 0 13.5 0.1 13.5 2 0 2 -0.5 2.1 -11.7 1.9 -6.5 -0.1 -12.6 -0.4 -13.5 -0.6z"/>
  <path d="M756 19.6 c0 -1.9 3.2 -2.6 13.3 -2.6 8 0 8.7 0.2 8.7 2 0 1.9 -0.7 2 -11 2 -8.7 0 -11 -0.3 -11 -1.4z"/>
  <path d="M1107 19 c0 -1.8 0.7 -2 7.3 -2 8.5 0 11.7 0.7 11.7 2.6 0 1.1 -2.1 1.4 -9.5 1.4 -8.8 0 -9.5 -0.1 -9.5 -2z"/>
  <path d="M845 18.6 c0 -2 3.2 -2.6 14.8 -2.6 9.5 0 10.2 0.1 10.2 2 0 1.9 -0.7 2 -12.5 2 -10 0 -12.5 -0.3 -12.5 -1.4z"/>
  <path d="M1015 18 c0 -1.9 0.7 -2 11.8 -2 12.9 0 16.2 0.6 16.2 2.6 0 1.1 -2.7 1.4 -14 1.4 -13.3 0 -14 -0.1 -14 -2z"/>
 </g>
 <g fill="#db0c1d">
  <path d="M811 19.2 c0 -1.8 2.2 -1.9 42.2 -2.5 53.8 -0.9 126.2 -0.9 178.1 0 38.6 0.6 40.7 0.7 40.7 2.5 0 1.7 -4.5 1.8 -130.5 1.8 -126 0 -130.5 -0.1 -130.5 -1.8z"/>
 </g>
 <g fill="#a12359">
  <path d="M420 31 c1.3 -0.9 1.3 -1 0 -1 -1.3 -0.1 -1.3 -0.2 0 -1 0.9 -0.5 16.9 -1.6 35.5 -2.4 18.7 -0.9 39.1 -1.8 45.3 -2.2 10.7 -0.5 11.2 -0.5 11.2 1.4 0 2.4 -2.7 2.6 -51 4.2 -16.8 0.6 -33.2 1.2 -36.5 1.5 -4.2 0.4 -5.6 0.3 -4.5 -0.5z"/>
  <path d="M1425.5 30.4 c-53.8 -2.2 -54.5 -2.2 -54.5 -4.6 0 -1.9 0.5 -2 11.3 -1.4 6.1 0.4 26.5 1.3 45.2 2.2 18.6 0.8 34.6 1.9 35.5 2.4 1.3 0.8 1.3 0.9 0 1 -1.3 0 -1.3 0.1 0 1 1.2 0.8 1 0.9 -1 0.8 -1.4 0 -17.8 -0.7 -36.5 -1.4z"/>
  <path d="M523 26.1 c0 -2 3.4 -3.1 9.6 -3.1 2.7 0 3.4 0.4 3.4 1.9 0 1.4 -1 2 -3.7 2.5 -6.9 1.1 -9.3 0.8 -9.3 -1.3z"/>
  <path d="M1350.3 27.3 c-1.5 -0.3 -2.3 -1.2 -2.3 -2.4 0 -1.4 0.7 -1.9 2.9 -1.9 5.7 0 9.1 1.2 9.1 3.1 0 1.5 -0.7 1.9 -3.7 1.8 -2.1 -0.1 -4.8 -0.4 -6 -0.6z"/>
  <path d="M553.4 25.6 c-0.9 -2.4 -0.1 -2.8 5.6 -3.4 4 -0.4 5.1 -0.1 5.6 1.2 0.9 2.4 0.1 2.8 -5.6 3.4 -4 0.4 -5.1 0.1 -5.6 -1.2z"/>
  <path d="M1319.7 26.3 c-2.9 -0.7 -1.6 -3.8 1.7 -4.1 6.8 -0.8 12.8 2.4 8 4.2 -1.7 0.7 -6.9 0.6 -9.7 -0.1z"/>
  <path d="M586.3 25.3 c-3.5 -0.7 -2.7 -3.1 1.2 -3.9 4.5 -0.8 10.5 0.3 10.5 2 0 2.2 -5.5 3.1 -11.7 1.9z"/>
  <path d="M1286.8 25.3 c-3.5 -0.9 -1.9 -3.2 2.6 -3.8 5.3 -0.8 10.6 0.2 10.6 1.9 0 2 -8.5 3.2 -13.2 1.9z"/>
  <path d="M621.8 24.3 c-2.3 -0.3 -3.8 -1 -3.8 -1.8 0 -1.5 3.3 -2.5 7 -2 1.4 0.2 4.2 0.4 6.3 0.4 2.4 0.1 3.7 0.6 3.7 1.5 0 2.3 -3.8 2.9 -13.2 1.9z"/>
  <path d="M1249.8 24.3 c-1 -0.2 -1.8 -1 -1.8 -1.7 0 -1.6 10.5 -3 14.4 -2 4.4 1.1 3 3.1 -2.6 3.8 -5.7 0.6 -7.3 0.6 -10 -0.1z"/>
  <path d="M674.8 23.2 c-3.4 -0.7 -2 -3.2 1.7 -3.2 2.3 0 3.5 0.5 3.5 1.4 0 1.5 -2.5 2.4 -5.2 1.8z"/>
  <path d="M1204.8 23.2 c-3.4 -0.7 -2 -3.2 1.7 -3.2 2.3 0 3.5 0.5 3.5 1.4 0 1.5 -2.5 2.4 -5.2 1.8z"/>
 </g>
 <g fill="#cf1739">
  <path d="M662 22.1 c0 -1.7 1 -2 8.3 -2.5 4.5 -0.3 38.9 -1.1 76.4 -1.7 60.4 -1 68.4 -1 69.7 0.4 1.4 1.3 1.2 1.5 -1.2 2.1 -1.5 0.3 -31.3 1 -66.2 1.5 -34.9 0.6 -68.8 1.3 -75.2 1.6 -11.1 0.5 -11.8 0.4 -11.8 -1.4z"/>
  <path d="M1207.5 23.3 c-3.3 -0.1 -35.5 -0.7 -71.5 -1.3 -36 -0.5 -66.8 -1.4 -68.5 -1.9 -1.6 -0.5 -2.4 -1 -1.7 -1 0.7 -0.1 1 -0.6 0.7 -1.1 -0.8 -1.3 3.3 -1.3 79 0 72.1 1.2 75.5 1.4 75.5 4.1 0 1.6 -0.7 1.9 -3.7 1.7 -2.1 -0.1 -6.5 -0.3 -9.8 -0.5z"/>
  <path d="M868.3 16.3 c0.9 -0.2 2.5 -0.2 3.5 0 0.9 0.3 0.1 0.5 -1.8 0.5 -1.9 0 -2.7 -0.2 -1.7 -0.5z"/>
  <path d="M1011.3 16.3 c1.5 -0.2 3.7 -0.2 5 0 1.2 0.2 0 0.4 -2.8 0.4 -2.7 0 -3.8 -0.2 -2.2 -0.4z"/>
 </g>
 <g fill="#bd235d">
  <path d="M506.5 27 c-1.4 -2.2 5.5 -2.9 38 -4 18.7 -0.6 47.5 -1.5 64 -2 35 -1.2 59.7 -1.2 59 0 -0.3 0.5 0.2 1.3 1.1 1.8 1.1 0.6 -2.7 1 -10.7 1.1 -16.5 0.2 -80.5 1.9 -115.4 3.1 -34.6 1.2 -35.2 1.2 -36 0z"/>
  <path d="M1336 26.9 c-32 -1.1 -97.8 -2.9 -111.5 -3 -8.2 -0.1 -11.4 -0.4 -10.2 -1.1 1 -0.5 1.5 -1.4 1.1 -2 -0.8 -1.2 40.9 -0.6 108.6 1.7 48.2 1.6 53.5 2 51.1 3.4 -1.1 0.7 -1.1 1 0 1.4 1.8 0.7 -12.5 0.6 -39.1 -0.4z"/>
 </g>
 <g fill="#f1f1f1">
  <path d="M1891 48 c0 -48 0 -48 10.5 -48 10.5 0 10.5 0 10.5 48 0 48 0 48 -10.5 48 -10.5 0 -10.5 0 -10.5 -48z"/>
 </g>
</svg>